<?xml version="1.0" encoding="UTF-8" standalone="no"?>
<svg width="45px" height="104px" viewBox="0 0 45 104" version="1.1" xmlns="http://www.w3.org/2000/svg" xmlns:xlink="http://www.w3.org/1999/xlink">
    <!-- Generator: Sketch 43.2 (39069) - http://www.bohemiancoding.com/sketch -->
    <title>1</title>
    <desc>Created with Sketch.</desc>
    <defs></defs>
    <g id="How-It-Works" stroke="none" stroke-width="1" fill="none" fill-rule="evenodd">
        <g id="How-It-Works/Desktop" transform="translate(-60.000000, -651.000000)" fill="#EBE6E0">
            <g id="about" transform="translate(10.000000, 610.000000)">
                <path d="M83.1171875,128.46875 C83.1171875,130.343759 83.1054689,132.124992 83.0820312,133.8125 C83.0585936,135.500008 82.9296887,137.023431 82.6953125,138.382812 L94.7890625,137.820312 L94.7890625,144.148438 L58.0859375,144.148438 L58.0859375,139.367188 C60.5703249,139.273437 62.6210857,138.828129 64.2382812,138.03125 C65.8554768,137.234371 67.1328078,136.13282 68.0703125,134.726562 C69.0078172,133.320305 69.6640606,131.632822 70.0390625,129.664062 C70.4140644,127.695303 70.6015625,125.468762 70.6015625,122.984375 L70.4609375,54.9921875 L70.1796875,54.9921875 L52.8828125,66.171875 L50,61.953125 L78.125,41 L82.9765625,41 L83.1171875,128.46875 Z" id="1"></path>
            </g>
        </g>
    </g>
</svg>