<?xml version="1.0" encoding="UTF-8" standalone="no"?>
<svg width="68px" height="68px" viewBox="0 0 68 68" version="1.1" xmlns="http://www.w3.org/2000/svg" xmlns:xlink="http://www.w3.org/1999/xlink">
    <!-- Generator: Sketch 43.2 (39069) - http://www.bohemiancoding.com/sketch -->
    <title>Shape</title>
    <desc>Created with Sketch.</desc>
    <defs></defs>
    <g id="Home-v2.1" stroke="none" stroke-width="1" fill="none" fill-rule="evenodd">
        <g id="Desktop-HD" transform="translate(-1031.000000, -768.000000)" fill-rule="nonzero" stroke="#FFFFFF" fill="#EBE6E0">
            <g id="counters" transform="translate(0.000000, 600.000000)">
                <g id="stats" transform="translate(289.000000, 142.000000)">
                    <g id="Group-4-Copy-2" transform="translate(716.000000, 0.000000)">
                        <g id="Group-3">
                            <path d="M60,27 C41.76,27 27,41.76 27,60 C27,78.24 41.76,93 60,93 C78.24,93 93,78.24 93,60 C93,41.76 78.24,27 60,27 Z M87.84,47.4 L87.72,47.4 C87.12,46.92 86.16,46.32 84.96,46.32 C84.96,46.32 84.84,46.2 84.72,46.08 C84.48,45.84 84,45.36 83.28,45.24 C83.04,44.16 81.96,44.04 81.6,44.04 C80.88,44.04 80.64,44.04 79.92,44.4 C79.44,44.64 78.48,45.12 76.08,46.08 C76.68,45.24 77.04,44.76 77.16,44.04 L78.24,44.04 L78.24,42.84 C78.24,41.4 78.6,39.6 78.96,39.12 C79.56,38.52 81,38.28 81.48,38.28 L81.48,38.04 C84.12,40.92 86.28,43.92 87.84,47.4 Z M81.48,38.52 L81.48,38.28 L81.48,38.28 L81.48,38.52 Z M69.24,30.84 L67.92,32.16 L67.8,32.52 C67.68,33.24 66.84,36.48 66.6,38.04 C66.24,38.16 65.04,38.4 62.16,38.4 C61.92,38.28 61.2,37.44 60.6,36.72 C60,36 59.28,35.04 58.32,34.2 C57.24,33.12 57.12,30.96 57.36,29.52 C58.44,29.4 59.16,29.4 60,29.4 C63.24,29.4 66.36,29.88 69.24,30.84 Z M41.04,36 C42.24,35.04 43.56,34.2 44.88,33.36 L46.32,35.52 C46.92,37.08 47.4,39 47.4,39.6 C47.4,40.68 47.28,41.52 47.16,41.76 C46.8,41.76 46.32,41.88 45.96,42 C45.24,42.24 44.52,42.48 43.32,41.88 C43.08,41.76 42.96,41.64 42.96,41.64 C42.96,41.4 43.32,40.8 43.56,40.44 L44.4,39.6 L41.04,36 Z M47.04,32.28 C47.16,32.28 47.28,32.16 47.4,32.16 L47.4,32.76 L47.04,32.28 Z M39.24,37.56 L41.4,39.72 C41.04,40.32 40.68,41.16 40.8,42 C40.92,42.6 41.28,43.44 42.48,44.04 C43.44,44.52 44.28,44.64 45,44.64 C45.72,44.64 46.44,44.4 46.92,44.28 C47.16,44.16 47.52,44.16 47.64,44.16 C49.92,44.16 49.92,40.92 49.92,39.6 C49.92,38.28 48.96,35.28 48.72,34.68 L47.52,33 L50.16,33 L51,34.2 L51,38.04 L51.6,38.4 C51.6,38.4 53.76,39.48 56.04,40.68 C56.4,40.92 56.52,40.92 55.92,42.36 C55.68,42.96 55.32,43.56 55.32,44.16 C55.32,44.64 54.72,45.24 54.24,45.24 C52.92,45.24 52.32,46.2 51.84,46.8 C51.6,47.16 51.36,47.52 51.12,47.88 C50.52,48.48 50.16,49.08 49.92,49.56 C49.44,50.28 48.96,51.12 47.76,52.32 C46.68,53.4 46.32,54 46.08,54.48 C45.84,54.96 45.72,55.08 44.76,55.56 C44.16,55.92 43.68,56.04 43.44,56.04 C41.88,56.4 41.88,57.36 41.88,58.92 C41.88,61.2 43.08,61.56 44.28,61.8 C44.76,61.92 45.36,61.92 45.96,62.28 C46.8,62.76 47.28,63.36 47.76,64.2 C48.36,65.16 49.08,66.12 50.52,66.84 C51.48,67.32 52.92,68.16 54.72,69.12 C57.24,70.56 60.36,72.24 63,73.68 C64.44,74.4 64.68,74.88 64.68,74.88 C64.68,75 64.44,75.24 64.32,75.48 C63.96,75.96 63.48,76.44 63.48,77.16 C63.48,78.24 63.48,79.2 62.52,81.12 C61.92,82.32 61.32,82.8 59.64,83.88 C58.68,84.48 57.6,85.2 56.04,86.4 C54.72,87.48 53.4,88.56 53.16,89.88 C52.56,89.76 52.08,89.64 51.48,89.4 C51.84,88.08 52.2,85.92 52.2,83.88 C52.2,80.4 51,79.56 48.96,78.6 C48.72,78.48 48.48,78.36 48.12,78.24 C46.68,77.52 46.44,76.92 45.84,74.76 C45.72,74.28 45.6,73.8 45.36,73.32 C44.88,72 45.36,71.16 46.32,69.96 C46.92,69.12 47.76,68.04 47.76,66.72 C47.76,64.44 46.2,63.12 43.2,63.12 L43.2,63.12 C42.72,63.12 40.92,62.28 39.36,61.32 C38.04,60.6 36.48,59.88 34.68,59.04 C31.68,57.48 32.52,49.44 33,46.68 L32.76,46.68 C34.2,43.2 36.48,40.08 39.24,37.56 Z M29.4,60 C29.4,58.08 29.64,56.16 29.88,54.36 C30.12,57.24 31.08,59.88 33.24,61.08 C34.92,61.92 36.48,62.76 37.8,63.48 C40.56,65.04 41.88,65.64 42.84,65.64 C44.88,65.64 45,66.12 45,66.72 C45,67.2 44.64,67.8 44.04,68.4 C43.08,69.6 41.88,71.28 42.72,73.92 C42.84,74.4 43.08,74.88 43.2,75.36 C43.92,77.76 44.4,79.08 46.8,80.28 C47.16,80.4 47.4,80.52 47.64,80.76 C49.2,81.48 49.44,81.6 49.44,83.76 C49.44,85.44 49.08,87.24 48.84,88.44 C37.56,84.24 29.4,73.08 29.4,60 Z M60,90.6 C58.44,90.6 56.88,90.48 55.44,90.24 L55.44,90 C55.56,89.76 55.92,89.28 57.36,88.2 C58.8,87.12 59.88,86.4 60.84,85.8 C62.64,84.6 63.6,83.88 64.56,82.08 C65.76,79.68 65.88,78.24 65.88,77.16 C66,77.04 66.12,76.92 66.12,76.8 C66.6,76.32 67.32,75.36 67.08,74.28 C66.84,73.2 65.88,72.36 64.08,71.4 C61.44,70.08 58.32,68.4 55.92,66.96 C54.12,66 52.56,65.04 51.6,64.56 C50.76,64.08 50.28,63.48 49.8,62.64 C49.2,61.68 48.48,60.72 47.04,60 C46.08,59.52 45.24,59.4 44.64,59.28 L44.28,59.28 L44.28,58.92 L44.28,58.32 C44.64,58.2 45.24,58.08 45.84,57.72 C47.28,57 47.64,56.52 48.12,55.8 C48.36,55.44 48.6,54.96 49.56,54.12 C51,52.68 51.6,51.6 52.08,50.88 C52.44,50.4 52.56,50.04 52.92,49.68 C53.4,49.2 53.76,48.6 54,48.24 C54.12,48 54.24,47.76 54.36,47.76 C56.16,47.76 57.84,46.08 57.84,44.28 C57.84,44.16 58.08,43.68 58.2,43.44 C58.68,42.36 59.88,39.96 57.24,38.64 C55.68,37.68 54.24,36.96 53.4,36.6 L53.4,33.48 L51.6,30.6 L51.6,30.6 C52.8,30.24 54,30 55.2,29.76 C55.08,31.56 55.2,34.08 56.88,35.88 C57.72,36.72 58.32,37.56 58.92,38.28 C60,39.72 60.96,40.8 62.28,40.8 C66.48,40.8 69.12,40.44 69.12,38.52 C69.12,37.92 69.72,35.28 70.08,33.48 L71.76,31.8 C74.52,33 77.16,34.56 79.44,36.48 C78.72,36.72 77.88,37.08 77.28,37.68 C76.2,38.76 75.96,40.92 75.84,42.24 C75.24,42.6 74.76,43.2 74.64,44.16 C74.52,44.4 73.92,45.12 73.68,45.48 C72.6,46.8 71.64,47.88 72.36,48.96 C73.08,50.04 74.52,49.56 76.32,48.84 C79.2,47.64 80.4,47.04 81,46.8 L81.12,46.8 C81.48,47.76 82.44,47.88 82.8,47.88 L83.04,48.12 C83.4,48.48 84,48.96 84.96,48.96 C85.44,48.96 86.04,49.44 86.4,49.68 L86.76,50.04 L88.8,50.04 C89.04,50.88 89.4,51.72 89.64,52.68 C89.4,52.68 89.16,52.56 88.92,52.44 C85.92,51 84,50.04 82.68,50.04 C81.36,50.04 78.36,51 77.76,51.24 L77.52,51 L77.28,51.24 C75.6,52.92 73.56,55.32 73.56,56.64 C73.56,56.76 73.44,57.12 73.32,57.36 C72.84,58.92 71.76,62.16 75.24,64.44 C77.52,65.88 79.32,65.4 80.64,65.16 C81,65.04 81.48,64.92 81.6,64.92 C81.6,64.92 81.6,64.92 81.72,65.04 C82.68,67.08 82.68,69.12 82.68,71.28 C82.68,72.96 82.44,78.36 82.32,80.88 C76.68,86.88 68.76,90.6 60,90.6 Z M84.24,78.72 C84.6,76.44 85.08,72.96 85.08,71.4 C85.08,69 85.08,66.6 83.76,64.08 C82.8,62.16 81,62.52 80.04,62.88 C78.96,63.12 77.88,63.36 76.56,62.52 C74.76,61.32 75.12,60 75.6,58.2 C75.72,57.72 75.96,57.24 75.96,56.88 C76.08,56.4 77.4,54.72 78.84,53.28 C80.4,52.8 82.2,52.32 82.68,52.32 C83.52,52.32 86.04,53.52 87.84,54.48 C88.92,54.96 89.64,55.2 90.24,55.32 C90.48,56.88 90.6,58.56 90.6,60.24 C90.6,67.08 88.2,73.56 84.24,78.72 Z" id="Shape"></path>
                        </g>
                    </g>
                </g>
            </g>
        </g>
    </g>
</svg>