<?xml version="1.0" encoding="UTF-8" standalone="no"?>
<svg width="50px" height="59px" viewBox="0 0 50 59" version="1.1" xmlns="http://www.w3.org/2000/svg" xmlns:xlink="http://www.w3.org/1999/xlink">
    <!-- Generator: Sketch 43.2 (39069) - http://www.bohemiancoding.com/sketch -->
    <title>Shape</title>
    <desc>Created with Sketch.</desc>
    <defs></defs>
    <g id="Home-v2.1" stroke="none" stroke-width="1" fill="none" fill-rule="evenodd">
        <g id="Desktop-HD" transform="translate(-699.000000, -773.000000)" stroke="#FFFFFF" fill-rule="nonzero" fill="#EBE6E0">
            <g id="counters" transform="translate(0.000000, 600.000000)">
                <g id="stats" transform="translate(289.000000, 142.000000)">
                    <g id="Group-4-Copy" transform="translate(351.000000, 0.000000)">
                        <g id="Group-3" transform="translate(23.000000, 0.000000)">
                            <path d="M71.8440197,42.9415044 L71.6028846,42.8209369 L70.7589118,42.8209369 L70.7589118,45.2322877 L71.0000469,45.2322877 C78.2340994,48.9698815 82.815666,56.3245016 82.815666,64.5230945 C82.815666,76.4592811 73.0496951,86.225252 61.1135084,86.225252 C49.1773217,86.225252 39.4113508,76.4592811 39.4113508,64.5230945 C39.4113508,56.3245016 43.8723499,48.9698815 51.22697,45.2322877 L51.468105,45.2322877 L51.468105,42.8209369 L50.6241323,42.8209369 L50.3829972,42.9415044 C42.1844043,47.0408009 37,55.3599613 37,64.5230945 C37,77.7855241 47.8510788,88.6366029 61.1135084,88.6366029 C74.375938,88.6366029 85.2270168,77.7855241 85.2270168,64.5230945 C85.2270168,55.3599613 80.0426125,47.0408009 71.8440197,42.9415044 Z M60.0284005,55.3599613 C60.2695356,55.8422314 60.6312382,56.0833665 61.1135084,56.0833665 C61.5957786,56.0833665 62.0780488,55.8422314 62.1986163,55.3599613 L69.4326688,37.27483 C69.6738039,36.6719923 69.4326688,36.0691545 68.8298311,35.7074519 L61.5957786,32.0904257 C61.234076,31.9698581 60.8723733,31.9698581 60.5106707,32.0904257 L53.2766182,35.7074519 C52.6737805,35.948587 52.4326454,36.6719923 52.6737805,37.27483 L60.0284005,55.3599613 Z M61.1135084,34.5017765 L66.7801829,37.3953975 L61.1135084,51.6223675 L55.4468339,37.3953975 L61.1135084,34.5017765 Z" id="Shape"></path>
                        </g>
                    </g>
                </g>
            </g>
        </g>
    </g>
</svg>