<?xml version="1.0" encoding="UTF-8" standalone="no"?>
<svg width="74px" height="62px" viewBox="0 0 74 62" version="1.1" xmlns="http://www.w3.org/2000/svg" xmlns:xlink="http://www.w3.org/1999/xlink">
    <!-- Generator: Sketch 43.2 (39069) - http://www.bohemiancoding.com/sketch -->
    <title>Shape</title>
    <desc>Created with Sketch.</desc>
    <defs></defs>
    <g id="Home-v2.1" stroke="none" stroke-width="1" fill="none" fill-rule="evenodd">
        <g id="Desktop-HD" transform="translate(-338.000000, -771.000000)" fill-rule="nonzero" stroke="#FFFFFF" fill="#EBE6E0">
            <g id="counters" transform="translate(0.000000, 600.000000)">
                <g id="stats" transform="translate(289.000000, 142.000000)">
                    <g id="Group-4">
                        <g id="Group-3" transform="translate(26.000000, 0.000000)">
                            <path d="M52.8,44.4 L68.4,44.4 L68.4,42 L52.8,42 L52.8,44.4 Z M52.8,50.4 L68.4,50.4 L68.4,48 L52.8,48 L52.8,50.4 Z M52.8,56.4 L68.4,56.4 L68.4,54 L52.8,54 L52.8,56.4 Z M52.8,62.4 L68.4,62.4 L68.4,60 L52.8,60 L52.8,62.4 Z M52.8,68.4 L68.4,68.4 L68.4,66 L52.8,66 L52.8,68.4 Z M52.8,74.4 L68.4,74.4 L68.4,72 L52.8,72 L52.8,74.4 Z M90,85.8 L90,43.2 L74.4,43.2 L74.4,34.8 L69.6,34.8 L69.6,30 L51.6,30 L51.6,34.8 L46.8,34.8 L46.8,43.2 L31.2,43.2 L31.2,85.56 C28.8,86.28 26.4,87 24,87.84 L24.84,90 C36.12,86.04 48,84 60,84 C72.12,84 83.88,86.04 95.16,90 L96,87.72 C93.96,87 92.04,86.4 90,85.8 Z M46.8,82.44 C42.36,83.04 37.92,83.76 33.6,84.84 L33.6,45.6 L46.8,45.6 L46.8,82.44 Z M72,43.2 L72,43.2 L72,82.32 C68.04,81.84 64.08,81.6 60,81.6 C56.4,81.6 52.8,81.84 49.2,82.2 L49.2,43.2 L49.2,43.2 L49.2,37.2 L54,37.2 L54,32.4 L67.2,32.4 L67.2,37.2 L72,37.2 L72,43.2 Z M87.6,85.2 C83.28,84 78.84,83.16 74.4,82.56 L74.4,45.6 L87.6,45.6 L87.6,85.2 Z" id="Shape"></path>
                        </g>
                    </g>
                </g>
            </g>
        </g>
    </g>
</svg>