<?xml version="1.0" encoding="UTF-8" standalone="no"?>
<svg width="60px" height="51px" viewBox="0 0 60 51" version="1.1" xmlns="http://www.w3.org/2000/svg" xmlns:xlink="http://www.w3.org/1999/xlink">
    <!-- Generator: Sketch 43.2 (39069) - http://www.bohemiancoding.com/sketch -->
    <title>Icon/Padlock</title>
    <desc>Created with Sketch.</desc>
    <defs>
        <path d="M42.6757365,40.314887 L49.0470202,28.7976084 C49.414501,28.9286462 49.8103172,29 50.2227991,29 C52.1557957,29 53.7227991,27.4329966 53.7227991,25.5 C53.7227991,23.5670034 52.1557957,22 50.2227991,22 C49.8041704,22 49.4027077,22.0734963 49.0306105,22.2082895 L42.4061828,10.2334062 C43.207093,9.59200432 43.7200012,8.60590022 43.7200012,7.5 C43.7200012,5.56700338 42.1529978,4 40.2200012,4 C38.4415986,4 36.9729885,5.32637992 36.7494555,7.04385538 L23.290553,7.04385538 C23.06702,5.32637992 21.59841,4 19.8200073,4 C17.8870107,4 16.3200073,5.56700338 16.3200073,7.5 C16.3200073,8.57680067 16.8062783,9.54002666 17.5712051,10.1820627 L11.0224524,22.0917667 C10.7656238,22.0317432 10.4979184,22 10.2227991,22 C8.28980243,22 6.72279905,23.5670034 6.72279905,25.5 C6.72279905,27.4329966 8.28980243,29 10.2227991,29 C10.491729,29 10.7535748,28.969669 11.0051022,28.9122414 L17.6951977,41.0789946 C17.0928798,41.7076637 16.7227991,42.5606134 16.7227991,43.5 C16.7227991,45.4329966 18.2898024,47 20.2227991,47 C21.9889079,47 23.4494924,45.6918948 23.6885308,43.9917062 L37.7570673,43.9917062 C37.9961057,45.6918948 39.4566902,47 41.2227991,47 C43.1557957,47 44.7227991,45.4329966 44.7227991,43.5 C44.7227991,42.0853539 43.8835258,40.8667305 42.6757365,40.314887 Z M41.5832773,40.0183375 C41.4647687,40.0062124 41.3445094,40 41.2227991,40 C39.5017299,40 38.0708007,41.2422368 37.7777234,42.8789983 L23.6678747,42.8789983 C23.3747974,41.2422368 21.9438682,40 20.2227991,40 C19.6300498,40 19.071716,40.1473499 18.5824286,40.4074185 L12.0328534,28.4962185 C13.0457986,27.8829713 13.7227991,26.7705466 13.7227991,25.5 C13.7227991,24.2355885 13.0523209,23.1277756 12.0475035,22.5127 L18.5159732,10.7490003 C18.9189874,10.910906 19.3590929,11 19.8200073,11 C21.5285901,11 22.9512276,9.77572271 23.2585247,8.15656323 L36.7814838,8.15656323 C37.0887809,9.77572271 38.5114184,11 40.2200012,11 C40.6531006,11 41.0678267,10.9213348 41.4506707,10.7775131 L48.0688451,22.7410923 C47.2494923,23.38169 46.7227991,24.3793371 46.7227991,25.5 C46.7227991,26.6269211 47.2553912,27.6294487 48.0825991,28.2696062 L41.5832773,40.0183375 Z M15,0 L45,0 L59.3635743,25.5 L45,51 L15,51 L0.722799052,25.5 L15,0 Z" id="path-1"></path>
    </defs>
    <g id="Home-v3" stroke="none" stroke-width="1" fill="none" fill-rule="evenodd">
        <g id="Home/Desktop" transform="translate(-1057.000000, -1850.000000)">
            <g id="why" transform="translate(10.000000, 1541.000000)">
                <g id="advantages" transform="translate(170.000000, 136.000000)">
                    <g id="Group-26-Copy-5" transform="translate(732.000000, 173.000000)">
                        <g id="Icon/Padlock" transform="translate(145.000000, 0.000000)">
                            <g id="Group-11">
                                <g id="Icon/Base">
                                    <g id="Combined-Shape">
                                        <use fill="#FFFFFF" fill-rule="evenodd" xlink:href="#path-1"></use>
                                        <path stroke="#AD9E8A" stroke-width="1" d="M10.7577121,21.5355171 L10.5843198,21.8508521 L11.0224524,22.0917667 L11.1362414,21.6048868 C11.0114785,21.5757284 10.8851942,21.5525717 10.7577137,21.5355143 L10.7577121,21.5355171 Z M43.3570696,40.1161748 L49.2903703,29.3906318 C49.5932284,29.4629832 49.905649,29.5 50.2227991,29.5 C52.4319381,29.5 54.2227991,27.709139 54.2227991,25.5 C54.2227991,23.290861 52.4319381,21.5 50.2227991,21.5 C49.8995712,21.5 49.581269,21.5384497 49.2730142,21.6135553 L43.036698,10.3402557 C43.7850626,9.59858959 44.2200012,8.58463671 44.2200012,7.5 C44.2200012,5.290861 42.4291402,3.5 40.2200012,3.5 C38.3553744,3.5 36.7662706,4.78281022 36.3349912,6.54385538 L23.7050173,6.54385538 C23.273738,4.78281022 21.6846341,3.5 19.8200073,3.5 C17.6108683,3.5 15.8200073,5.290861 15.8200073,7.5 C15.8200073,8.55569438 16.2319352,9.54507829 16.945692,10.2819222 L10.7577121,21.5355171 C10.5814102,21.5119242 10.4028187,21.5 10.2227991,21.5 C8.01366005,21.5 6.22279905,23.290861 6.22279905,25.5 C6.22279905,27.709139 8.01366005,29.5 10.2227991,29.5 C10.3966101,29.5 10.5690939,29.4888842 10.7394777,29.466883 L17.0888708,41.0140273 C16.5334999,41.7130082 16.2227991,42.5825702 16.2227991,43.5 C16.2227991,45.709139 18.0136601,47.5 20.2227991,47.5 C22.073711,47.5 23.654775,46.2355924 24.0989114,44.4917062 L37.3466868,44.4917062 C37.7908231,46.2355924 39.3718871,47.5 41.2227991,47.5 C43.4319381,47.5 45.2227991,45.709139 45.2227991,43.5 C45.2227991,42.1030546 44.4999732,40.8374209 43.3570696,40.1161748 Z M41.2982249,39.5006986 C41.2731101,39.5002331 41.2479674,39.5 41.2227991,39.5 C39.4218853,39.5 37.8709086,40.6982461 37.3820072,42.3789983 L24.0635909,42.3789983 C23.5746895,40.6982461 22.0237128,39.5 20.2227991,39.5 C19.7292508,39.5 19.248017,39.5896996 18.7978083,39.7614007 L12.6881827,28.6503027 C13.6432955,27.902678 14.2227991,26.751168 14.2227991,25.5 C14.2227991,24.2550383 13.649053,23.1085267 12.7018293,22.3604409 L18.7528391,11.3559429 C19.0972471,11.4510804 19.4554371,11.5 19.8200073,11.5 C21.6071267,11.5 23.1495922,10.3197466 23.6502558,8.65656323 L36.3897528,8.65656323 C36.8904163,10.3197466 38.4328818,11.5 40.2200012,11.5 C40.5575232,11.5 40.8896405,11.458073 41.2105068,11.3762961 L47.4361304,22.6302671 C46.6698033,23.3739876 46.2227991,24.4004941 46.2227991,25.5 C46.2227991,26.6058104 46.6749692,27.6376245 47.4489462,28.3821276 L41.2982249,39.5006986 Z M15.29309,0.5 L44.7077743,0.5 L58.7897099,25.5 L44.7077743,50.5 L15.29309,50.5 L1.29583419,25.5 L15.29309,0.5 Z"></path>
                                    </g>
                                </g>
                                <path d="M30.1428571,21.7142857 C26.1836735,21.7142857 23,24.9387755 23,28.8571429 C23,32.7755102 26.1836735,36 30.1428571,36 C34.1020408,36 37.2857143,32.8163265 37.2857143,28.8571429 C37.244898,24.9387755 34.0612245,21.7142857 30.1428571,21.7142857 Z M30.1428571,35.1836735 C26.6326531,35.1836735 23.8163265,32.3265306 23.8163265,28.8571429 C23.8163265,25.3877551 26.6326531,22.5306122 30.1428571,22.5306122 C33.6530612,22.5306122 36.4285714,25.3877551 36.4285714,28.8571429 C36.4285714,32.3265306 33.6122449,35.1836735 30.1428571,35.1836735 Z M27.2857143,21.3061224 C27.5306122,21.3061224 27.6938776,21.1428571 27.6938776,20.8979592 L27.6938776,18.6938776 C27.6938776,17.5918367 28.4693878,16.8163265 29.5714286,16.8163265 L30.7142857,16.8163265 C31.8163265,16.8163265 32.6326531,17.6326531 32.6326531,18.6938776 L32.6326531,20.8979592 C32.6326531,21.1428571 32.7959184,21.3061224 33.0408163,21.3061224 C33.2857143,21.3061224 33.4489796,21.1428571 33.4489796,20.8979592 L33.4489796,18.6938776 C33.4489796,17.1428571 32.2653061,16 30.7142857,16 L29.5714286,16 C28.0612245,16 26.877551,17.1428571 26.877551,18.6938776 L26.877551,20.8979592 C26.877551,21.1428571 27.0816327,21.3061224 27.2857143,21.3061224 Z M30.1428571,27.0204082 C29.8979592,27.0204082 29.7346939,27.1836735 29.7346939,27.4285714 L29.7346939,30.2857143 C29.7346939,30.5306122 29.8979592,30.6938776 30.1428571,30.6938776 C30.3877551,30.6938776 30.5510204,30.5306122 30.5510204,30.2857143 L30.5510204,27.4285714 C30.5510204,27.1836735 30.3877551,27.0204082 30.1428571,27.0204082 Z" id="Shape" fill="#AD9E8A" fill-rule="nonzero"></path>
                            </g>
                        </g>
                    </g>
                </g>
            </g>
        </g>
    </g>
</svg>