<?xml version="1.0" encoding="UTF-8" standalone="no"?>
<svg width="270px" height="70px" viewBox="0 0 270 70" version="1.1" xmlns="http://www.w3.org/2000/svg" xmlns:xlink="http://www.w3.org/1999/xlink">
    <!-- Generator: Sketch 43.2 (39069) - http://www.bohemiancoding.com/sketch -->
    <title>Logo Invert</title>
    <desc>Created with Sketch.</desc>
    <defs></defs>
    <g id="Home-v2.1" stroke="none" stroke-width="1" fill="none" fill-rule="evenodd">
        <g id="Desktop-HD" transform="translate(-120.000000, -40.000000)">
            <g id="Navbar" transform="translate(120.000000, 40.000000)">
                <g id="Logo-Invert">
                    <g id="Group-12">
                        <path d="M58.085,2.7051 L19.857,2.7051 L0.742,36.2311 L19.857,69.7561 L58.085,69.7561 L77.2,36.2311 L58.085,2.7051 Z M66.264,40.8541 C65.844,40.8541 65.443,40.7821 65.058,40.6721 L55.844,56.8681 C56.693,57.7071 57.223,58.8811 57.223,60.1781 L57.223,60.1801 C57.223,62.7451 55.176,64.8231 52.654,64.8231 C50.504,64.8231 48.713,63.3111 48.224,61.2841 L29.787,61.2841 C29.297,63.3111 27.51,64.8231 25.359,64.8231 C22.838,64.8231 20.787,62.7451 20.787,60.1801 L20.787,60.1781 C20.787,58.8621 21.337,57.6761 22.207,56.8341 L12.992,40.6391 C12.574,40.7661 12.139,40.8541 11.681,40.8541 C9.156,40.8541 7.109,38.7781 7.109,36.2151 C7.109,33.6511 9.156,31.5791 11.681,31.5791 C12.121,31.5791 12.537,31.6641 12.939,31.7811 L22.155,15.5831 C21.313,14.7411 20.787,13.5731 20.787,12.2801 C20.787,9.7161 22.838,7.6411 25.359,7.6411 C27.459,7.6411 29.207,9.0841 29.746,11.0391 L48.267,11.0391 C48.803,9.0841 50.557,7.6411 52.654,7.6411 C55.176,7.6411 57.223,9.7161 57.223,12.2801 C57.223,13.5541 56.715,14.7081 55.894,15.5481 L65.11,31.7471 C65.481,31.6491 65.861,31.5791 66.264,31.5791 C68.787,31.5791 70.836,33.6511 70.836,36.2151 C70.836,38.7781 68.787,40.8541 66.264,40.8541 L66.264,40.8541 Z" id="Fill-2" fill="#84735F"></path>
                        <path d="M63.1318,32.8862 L53.9558,16.7592 C53.5278,16.8932 53.0798,16.9892 52.6098,16.9892 C50.4248,16.9892 48.6018,15.4282 48.1498,13.3462 L29.7768,13.3462 C29.3268,15.4282 27.5038,16.9892 25.3178,16.9892 C24.8628,16.9892 24.4338,16.9012 24.0218,16.7762 L14.8108,32.9592 C15.6698,33.8012 16.2088,34.9762 16.2088,36.2852 C16.2088,37.5732 15.6878,38.7372 14.8538,39.5782 L24.0878,55.8032 C24.4808,55.6942 24.8878,55.6142 25.3178,55.6142 C27.4558,55.6142 29.2348,57.1062 29.7338,59.1152 L48.1898,59.1152 C48.6918,57.1062 50.4748,55.6142 52.6098,55.6142 C53.0568,55.6142 53.4808,55.6982 53.8888,55.8212 L63.0898,39.6492 C62.2048,38.8052 61.6468,37.6152 61.6468,36.2852 C61.6468,34.9362 62.2248,33.7332 63.1318,32.8862 L63.1318,32.8862 Z M47.2628,50.8012 L30.6818,50.8012 L22.3908,36.2312 L30.6818,21.6642 L47.2628,21.6642 L55.5548,36.2312 L47.2628,50.8012 Z" id="Fill-4" fill="#AD9E8A"></path>
                        <path d="M95.6523,31.2871 C90.8443,31.2871 87.5683,28.7971 87.5683,23.0271 L87.5683,2.7041 L84.9473,2.7041 L84.9473,23.3341 C84.9473,30.0211 88.7483,33.7781 95.3903,33.7781 C102.2513,33.7781 106.1423,29.8901 106.1423,23.0731 L106.1423,2.7041 L103.5193,2.7041 L103.5193,23.3341 C103.5193,29.1471 100.4173,31.2871 95.6523,31.2871 L95.6523,31.2871 Z M113.1913,0.1721 L113.1913,28.9721 C113.1913,31.8121 114.5473,33.6471 117.6483,33.6471 C118.4333,33.6471 119.7033,33.5161 120.5773,33.1231 L120.5773,30.8491 C120.0943,31.1131 119.3093,31.4181 118.3043,31.4181 C116.3823,31.4181 115.7233,30.4581 115.7233,28.2721 L115.7233,0.1721 L113.1913,0.1721 Z M131.0183,33.5601 C133.5113,33.5601 134.9983,33.0801 135.9163,32.5981 L135.1713,30.4581 C134.6463,30.7631 133.6423,31.2451 131.4573,31.2451 C129.2293,31.2451 127.7873,30.0651 127.7873,27.1351 L127.7873,11.9701 L134.4293,11.9701 L134.4293,9.7861 L127.7873,9.7861 L127.7873,3.5371 L125.9513,3.5371 L125.2503,9.7861 L121.6233,10.3101 L121.6233,11.9701 L125.2503,11.9701 L125.2503,27.4421 C125.2503,31.5051 127.1733,33.5601 131.0183,33.5601 L131.0183,33.5601 Z M151.7673,9.6981 C151.2413,9.5681 150.4553,9.4351 149.2733,9.4351 C146.6553,9.4351 144.4683,10.6611 143.3773,12.1881 L143.2013,12.1881 L142.6333,9.7861 L140.7533,9.7861 L140.7533,33.3431 L143.2893,33.3431 L143.2893,15.3771 C144.3363,12.9761 146.7403,12.0151 149.1443,12.0151 C150.0193,12.0151 150.8923,12.1451 151.7673,12.4081 L151.7673,9.6981 Z M167.9543,28.0091 C166.8193,29.8021 164.4603,31.6371 161.4433,31.6371 C158.4253,31.6371 156.7673,29.7571 156.7673,27.4421 C156.7673,23.5101 161.8793,22.0211 167.9543,22.1971 L167.9543,28.0091 Z M162.6643,9.4801 C157.9023,9.4801 155.7153,12.1031 154.9313,13.1951 L156.8083,14.7681 C157.5503,13.6761 159.1273,11.8411 162.5353,11.8411 C165.9873,11.8411 167.9543,13.0641 167.9543,17.2591 L167.9543,20.0121 C159.3863,19.9241 154.1863,22.5041 154.1863,27.6601 C154.1863,30.7631 156.6343,33.8231 160.9613,33.8231 C165.1133,33.8231 167.0363,31.8551 168.2153,30.5451 L168.3923,30.5451 C168.9153,32.1631 170.3133,33.4731 172.6733,33.4731 C172.9373,33.4731 173.2413,33.4281 173.3733,33.3851 L173.3733,31.4181 L172.8053,31.4181 C171.0123,31.4181 170.3133,29.7571 170.3133,27.4421 L170.3133,16.4291 C170.3133,11.7081 167.4303,9.4801 162.6643,9.4801 L162.6643,9.4801 Z M182.9573,33.3431 L187.3713,33.3431 L197.4653,2.7041 L194.7573,2.7041 L187.0643,26.1751 C186.4973,27.9231 185.8833,29.7151 185.3163,31.4621 L185.1393,31.4621 C184.5743,29.7151 183.9633,27.9231 183.3943,26.1751 L175.7033,2.7041 L172.8633,2.7041 L182.9573,33.3431 Z M213.2323,28.0091 C212.0953,29.8021 209.7343,31.6371 206.7193,31.6371 C203.7013,31.6371 202.0423,29.7571 202.0423,27.4421 C202.0423,23.5101 207.1553,22.0211 213.2323,22.1971 L213.2323,28.0091 Z M207.9433,9.4801 C203.1803,9.4801 200.9933,12.1031 200.2053,13.1951 L202.0853,14.7681 C202.8303,13.6761 204.4023,11.8411 207.8133,11.8411 C211.2633,11.8411 213.2323,13.0641 213.2323,17.2591 L213.2323,20.0121 C204.6653,19.9241 199.4643,22.5041 199.4643,27.6601 C199.4643,30.7631 201.9123,33.8231 206.2383,33.8231 C210.3913,33.8231 212.3123,31.8551 213.4923,30.5451 L213.6683,30.5451 C214.1923,32.1631 215.5893,33.4731 217.9503,33.4731 C218.2143,33.4731 218.5183,33.4281 218.6483,33.3851 L218.6483,31.4181 L218.0823,31.4181 C216.2913,31.4181 215.5893,29.7571 215.5893,27.4421 L215.5893,16.4291 C215.5893,11.7081 212.7053,9.4801 207.9433,9.4801 L207.9433,9.4801 Z M222.4263,25.9991 C222.5563,31.2871 225.3543,33.8231 230.1173,33.8231 C234.3103,33.8231 236.4983,31.5051 236.9803,30.8081 L237.1533,30.8081 L237.7213,33.3431 L239.5993,33.3431 L239.5993,9.7861 L237.0653,9.7861 L237.0653,24.9951 C237.0653,29.5821 234.1373,31.4621 230.6403,31.4621 C226.7533,31.4621 224.9623,29.4521 224.9623,25.2571 L224.9623,9.7861 L222.4263,9.7861 L222.4263,25.9991 Z M246.7243,0.1721 L246.7243,28.9721 C246.7243,31.8121 248.0783,33.6471 251.1813,33.6471 C251.9693,33.6471 253.2373,33.5161 254.1103,33.1231 L254.1103,30.8491 C253.6283,31.1131 252.8453,31.4181 251.8393,31.4181 C249.9163,31.4181 249.2583,30.4581 249.2583,28.2721 L249.2583,0.1721 L246.7243,0.1721 Z M264.2773,33.5601 C266.7673,33.5601 268.2513,33.0801 269.1713,32.5981 L268.4263,30.4581 C267.9033,30.7631 266.8993,31.2451 264.7133,31.2451 C262.4823,31.2451 261.0413,30.0651 261.0413,27.1351 L261.0413,11.9701 L267.6843,11.9701 L267.6843,9.7861 L261.0413,9.7861 L261.0413,3.5371 L259.2063,3.5371 L258.5073,9.7861 L254.8803,10.3101 L254.8803,11.9701 L258.5073,11.9701 L258.5073,27.4421 C258.5073,31.5051 260.4323,33.5601 264.2773,33.5601 L264.2773,33.5601 Z" id="Fill-6" fill="#FFFFFF"></path>
                        <path d="M131.7783,64.3149 L131.7783,64.2859 C132.1993,64.1449 132.5523,63.7269 132.5523,63.0979 C132.5523,62.0219 131.7953,61.6879 130.8733,61.6879 L129.0153,61.6879 L129.0153,67.1569 L130.7703,67.1569 C132.3963,67.1569 132.8243,66.3089 132.8243,65.5259 C132.8243,64.7539 132.3183,64.3759 131.7783,64.3149 L131.7783,64.3149 Z M131.6053,63.2229 C131.6053,63.6759 131.3403,63.9729 130.7163,63.9729 L129.9843,63.9729 L129.9843,62.5039 L130.7403,62.5039 C131.3343,62.5039 131.6053,62.7619 131.6053,63.2229 L131.6053,63.2229 Z M130.9143,66.3379 L129.9843,66.3379 L129.9843,64.7899 L130.8593,64.7899 C131.3813,64.7899 131.8333,64.9789 131.8333,65.5649 C131.8333,66.0179 131.5833,66.3379 130.9143,66.3379 L130.9143,66.3379 Z M138.7533,61.6879 L137.7163,61.6879 L136.4723,64.3329 L136.4413,64.3329 L135.2073,61.6879 L134.1143,61.6879 L135.9513,65.3169 L135.9513,67.1569 L136.9253,67.1569 L136.9253,65.3169 L138.7533,61.6879 Z M148.5353,67.4299 L146.2063,61.6349 L144.7223,61.6349 L144.7223,69.7559 L145.6013,69.7559 L145.6013,62.7229 L145.6723,62.7229 L148.0603,68.5859 L149.0453,68.5859 C149.8343,66.6509 150.6563,64.6589 151.4433,62.7229 L151.5143,62.7229 L151.5143,69.7559 L152.4043,69.7559 L152.4043,61.6349 L150.9333,61.6349 L148.6013,67.4299 L148.5353,67.4299 Z M158.0613,63.8129 C158.2343,63.2429 158.3873,62.7599 158.5273,62.2739 L158.5723,62.2739 C158.7233,62.7699 158.8643,63.2429 159.0463,63.8349 L159.9163,66.5709 L157.1793,66.5709 L158.0613,63.8129 Z M157.8433,61.6349 L155.2133,69.7559 L156.1623,69.7559 L156.9183,67.3929 L160.1833,67.3929 L160.9373,69.7559 L161.9083,69.7559 L159.2793,61.6349 L157.8433,61.6349 Z M164.7083,61.6349 L164.7083,69.7559 L169.1203,69.7559 L169.1203,68.9359 L165.6313,68.9359 L165.6313,61.6349 L164.7083,61.6349 Z M171.4203,65.7599 C171.4203,68.2639 172.3803,69.8739 174.6133,69.8739 C175.7743,69.8739 176.4793,69.5379 176.8383,69.1899 L176.3303,68.5279 C176.0413,68.8089 175.5643,69.0279 174.7413,69.0279 C173.1893,69.0279 172.3683,67.8829 172.3683,65.6799 C172.3683,63.3849 173.2333,62.3519 174.6493,62.3519 C175.4963,62.3519 175.9693,62.6079 176.3193,62.8969 L176.8993,62.1919 C176.6313,61.9599 175.9803,61.5199 174.7413,61.5199 C172.5763,61.5199 171.4203,63.0959 171.4203,65.7599 L171.4203,65.7599 Z M182.0903,63.8129 C182.2623,63.2429 182.4143,62.7599 182.5523,62.2739 L182.5993,62.2739 C182.7493,62.7699 182.8863,63.2429 183.0743,63.8349 L183.9443,66.5709 L181.2083,66.5709 L182.0903,63.8129 Z M181.8693,61.6349 L179.2383,69.7559 L180.1903,69.7559 L180.9443,67.3929 L184.2123,67.3929 L184.9623,69.7559 L185.9373,69.7559 L183.3063,61.6349 L181.8693,61.6349 Z M187.9663,66.7099 L191.3133,66.7099 L191.3133,65.8989 L187.9663,65.8989 L187.9663,66.7099 Z M196.2183,63.8129 C196.3903,63.2429 196.5433,62.7599 196.6803,62.2739 L196.7253,62.2739 C196.8773,62.7699 197.0163,63.2429 197.2023,63.8349 L198.0703,66.5709 L195.3363,66.5709 L196.2183,63.8129 Z M195.9963,61.6349 L193.3673,69.7559 L194.3153,69.7559 L195.0703,67.3929 L198.3373,67.3929 L199.0913,69.7559 L200.0633,69.7559 L197.4313,61.6349 L195.9963,61.6349 Z M206.6783,67.4299 L204.3473,61.6349 L202.8673,61.6349 L202.8673,69.7559 L203.7463,69.7559 L203.7463,62.7229 L203.8163,62.7229 L206.2033,68.5859 L207.1893,68.5859 C207.9753,66.6509 208.7993,64.6589 209.5893,62.7229 L209.6593,62.7229 L209.6593,69.7559 L210.5493,69.7559 L210.5493,61.6349 L209.0793,61.6349 L206.7473,67.4299 L206.6783,67.4299 Z M214.2183,69.7559 L215.1443,69.7559 L215.1443,61.6349 L214.2183,61.6349 L214.2183,69.7559 Z M220.1833,69.7559 L221.1063,69.7559 L221.1063,62.4599 L223.2603,62.4599 L223.2603,61.6349 L218.0133,61.6349 L218.0133,62.4599 L220.1833,62.4599 L220.1833,69.7559 Z" id="Fill-8" fill="#FFFFFF"></path>
                        <path d="M91.1074,52.6235 C90.1314,52.6235 89.4844,52.2285 89.0334,51.8575 L88.4884,52.6025 C88.9524,53.0165 89.7954,53.4555 91.0274,53.4555 C92.7634,53.4555 93.7364,52.4375 93.7364,51.2095 C93.7364,48.7035 89.8654,49.0985 89.8654,47.2215 C89.8654,46.4805 90.4344,45.9455 91.3844,45.9455 C92.0684,45.9455 92.5684,46.1805 92.9734,46.5045 L93.5404,45.7875 C93.0764,45.4025 92.3574,45.1025 91.4434,45.1025 C89.9814,45.1025 88.9284,46.0515 88.9284,47.2815 C88.9284,49.8425 92.7994,49.4245 92.7994,51.2685 C92.7994,52.0215 92.2074,52.6235 91.1074,52.6235 L91.1074,52.6235 Z M98.8684,47.3965 C99.0424,46.8265 99.1914,46.3405 99.3324,45.8555 L99.3774,45.8555 C99.5294,46.3535 99.6684,46.8265 99.8524,47.4185 L100.7194,50.1545 L97.9864,50.1545 L98.8684,47.3965 Z M98.6474,45.2195 L96.0164,53.3385 L96.9664,53.3385 L97.7214,50.9775 L100.9874,50.9775 L101.7404,53.3385 L102.7134,53.3385 L100.0844,45.2195 L98.6474,45.2195 Z M106.4494,53.3385 L106.4494,49.8505 L109.3904,49.8505 L109.3904,49.0295 L106.4494,49.0295 L106.4494,46.0375 L109.7964,46.0375 L109.7964,45.2195 L105.5094,45.2195 L105.5094,53.3385 L106.4494,53.3385 Z M117.1934,53.3385 L117.1934,52.5185 L113.6464,52.5185 L113.6464,49.6335 L116.6254,49.6335 L116.6254,48.8105 L113.6464,48.8105 L113.6464,46.0375 L117.0314,46.0375 L117.0314,45.2195 L112.7224,45.2195 L112.7224,53.3385 L117.1934,53.3385 Z M124.4844,53.3385 L126.6024,53.3385 C129.0954,53.3385 130.1584,51.8485 130.1584,49.2015 C130.1584,46.4805 129.0624,45.2195 126.6134,45.2195 L124.4844,45.2195 L124.4844,53.3385 Z M125.4084,46.0375 L126.5344,46.0375 C128.2614,46.0375 129.2114,46.8855 129.2114,49.3075 C129.2114,51.6375 128.3764,52.5185 126.5894,52.5185 L125.4084,52.5185 L125.4084,46.0375 Z M137.8694,53.3385 L137.8694,52.5185 L134.3224,52.5185 L134.3224,49.6335 L137.3014,49.6335 L137.3014,48.8105 L134.3224,48.8105 L134.3224,46.0375 L137.7054,46.0375 L137.7054,45.2195 L133.3964,45.2195 L133.3964,53.3385 L137.8694,53.3385 Z M143.2504,45.2195 L140.9094,45.2195 L140.9094,53.3385 L141.8354,53.3385 L141.8354,50.1315 L143.0764,50.1315 C144.9414,50.1315 145.8784,49.1725 145.8784,47.5455 C145.8784,45.9125 144.8594,45.2195 143.2504,45.2195 L143.2504,45.2195 Z M143.0384,46.0375 C144.2694,46.0375 144.9194,46.4925 144.9194,47.6505 C144.9194,48.7275 144.4204,49.3185 143.0764,49.3185 L141.8354,49.3185 L141.8354,46.0375 L143.0384,46.0375 Z M149.5584,49.2405 C149.5584,46.7115 150.4144,45.9345 151.7384,45.9345 C153.0914,45.9345 153.9624,46.7835 153.9624,49.3185 C153.9624,51.8365 153.1174,52.6235 151.7734,52.6235 C150.4254,52.6235 149.5584,51.7775 149.5584,49.2405 L149.5584,49.2405 Z M154.9124,49.2405 C154.9124,46.2465 153.7324,45.1025 151.8044,45.1025 C149.8454,45.1025 148.6094,46.3185 148.6094,49.3185 C148.6094,52.3105 149.7804,53.4555 151.7134,53.4555 C153.6624,53.4555 154.9124,52.2405 154.9124,49.2405 L154.9124,49.2405 Z M160.0074,52.6235 C159.0354,52.6235 158.3844,52.2285 157.9344,51.8575 L157.3904,52.6025 C157.8534,53.0165 158.6974,53.4555 159.9274,53.4555 C161.6664,53.4555 162.6364,52.4375 162.6364,51.2095 C162.6364,48.7035 158.7654,49.0985 158.7654,47.2215 C158.7654,46.4805 159.3364,45.9455 160.2874,45.9455 C160.9684,45.9455 161.4674,46.1805 161.8754,46.5045 L162.4414,45.7875 C161.9784,45.4025 161.2574,45.1025 160.3434,45.1025 C158.8804,45.1025 157.8284,46.0515 157.8284,47.2815 C157.8284,49.8425 161.7024,49.4245 161.7024,51.2685 C161.7024,52.0215 161.1114,52.6235 160.0074,52.6235 L160.0074,52.6235 Z M165.7534,53.3385 L166.6784,53.3385 L166.6784,45.2195 L165.7534,45.2195 L165.7534,53.3385 Z M171.7144,53.3385 L172.6414,53.3385 L172.6414,46.0375 L174.7954,46.0375 L174.7954,45.2195 L169.5464,45.2195 L169.5464,46.0375 L171.7144,46.0375 L171.7144,53.3385 Z M178.0024,49.2405 C178.0024,46.7115 178.8614,45.9345 180.1834,45.9345 C181.5394,45.9345 182.4094,46.7835 182.4094,49.3185 C182.4094,51.8365 181.5614,52.6235 180.2174,52.6235 C178.8734,52.6235 178.0024,51.7775 178.0024,49.2405 L178.0024,49.2405 Z M183.3584,49.2405 C183.3584,46.2465 182.1774,45.1025 180.2524,45.1025 C178.2944,45.1025 177.0554,46.3185 177.0554,49.3185 C177.0554,52.3105 178.2214,53.4555 180.1604,53.4555 C182.1064,53.4555 183.3584,52.2405 183.3584,49.2405 L183.3584,49.2405 Z M186.6134,45.2195 L186.6134,53.3385 L187.5364,53.3385 L187.5364,49.9695 L188.1734,49.9695 C188.7644,49.9695 189.1254,50.2095 189.4374,50.7445 L190.9104,53.3385 L192.0094,53.3385 L190.5154,50.8015 C190.1434,50.1765 189.8564,49.9085 189.5314,49.7605 L189.5314,49.7135 C190.5034,49.6095 191.3614,48.8325 191.3614,47.5005 C191.3614,45.8775 190.3424,45.2195 188.6484,45.2195 L186.6134,45.2195 Z M187.5364,46.0375 L188.5214,46.0375 C189.7524,46.0375 190.4114,46.4675 190.4114,47.6035 C190.4114,48.7275 189.7054,49.1725 188.5834,49.1725 L187.5364,49.1725 L187.5364,46.0375 Z M200.0484,45.2195 L199.0524,45.2195 L196.9574,49.4595 L196.9084,49.4595 L194.8134,45.2195 L193.7584,45.2195 L196.4464,50.4085 L196.4464,53.3385 L197.3614,53.3385 L197.3614,50.4085 L200.0484,45.2195 Z M208.6704,52.6235 C207.6994,52.6235 207.0504,52.2285 206.5974,51.8575 L206.0534,52.6025 C206.5194,53.0165 207.3614,53.4555 208.5894,53.4555 C210.3294,53.4555 211.3014,52.4375 211.3014,51.2095 C211.3014,48.7035 207.4314,49.0985 207.4314,47.2215 C207.4314,46.4805 207.9994,45.9455 208.9484,45.9455 C209.6304,45.9455 210.1294,46.1805 210.5374,46.5045 L211.1034,45.7875 C210.6404,45.4025 209.9224,45.1025 209.0074,45.1025 C207.5464,45.1025 206.4924,46.0515 206.4924,47.2815 C206.4924,49.8425 210.3654,49.4245 210.3654,51.2685 C210.3654,52.0215 209.7724,52.6235 208.6704,52.6235 L208.6704,52.6235 Z M218.8234,53.3385 L218.8234,52.5185 L215.2814,52.5185 L215.2814,49.6335 L218.2574,49.6335 L218.2574,48.8105 L215.2814,48.8105 L215.2814,46.0375 L218.6644,46.0375 L218.6644,45.2195 L214.3524,45.2195 L214.3524,53.3385 L218.8234,53.3385 Z M221.8624,45.2195 L221.8624,53.3385 L222.7914,53.3385 L222.7914,49.9695 L223.4284,49.9695 C224.0194,49.9695 224.3794,50.2095 224.6924,50.7445 L226.1644,53.3385 L227.2624,53.3385 L225.7714,50.8015 C225.3984,50.1765 225.1074,49.9085 224.7854,49.7605 L224.7854,49.7135 C225.7584,49.6095 226.6154,48.8325 226.6154,47.5005 C226.6154,45.8775 225.5944,45.2195 223.9044,45.2195 L221.8624,45.2195 Z M222.7914,46.0375 L223.7774,46.0375 C225.0034,46.0375 225.6674,46.4675 225.6674,47.6035 C225.6674,48.7275 224.9604,49.1725 223.8324,49.1725 L222.7914,49.1725 L222.7914,46.0375 Z M231.8224,53.3385 L233.2374,53.3385 L235.8904,45.2195 L234.9394,45.2195 L233.0624,51.0575 C232.9004,51.5905 232.7264,52.1135 232.5764,52.6355 L232.5314,52.6355 C232.3784,52.1135 232.2054,51.5805 232.0434,51.0575 L230.1794,45.2195 L229.1694,45.2195 L231.8224,53.3385 Z M238.7644,53.3385 L239.6874,53.3385 L239.6874,45.2195 L238.7644,45.2195 L238.7644,53.3385 Z M242.9864,49.3425 C242.9864,51.8485 243.9454,53.4555 246.1824,53.4555 C247.3424,53.4555 248.0484,53.1195 248.4084,52.7735 L247.8984,52.1135 C247.6084,52.3935 247.1344,52.6115 246.3094,52.6115 C244.7564,52.6115 243.9324,51.4655 243.9324,49.2625 C243.9324,46.9635 244.8034,45.9345 246.2164,45.9345 C247.0624,45.9345 247.5384,46.1915 247.8844,46.4805 L248.4644,45.7735 C248.1984,45.5435 247.5494,45.1025 246.3094,45.1025 C244.1404,45.1025 242.9864,46.6785 242.9864,49.3425 L242.9864,49.3425 Z M255.9014,53.3385 L255.9014,52.5185 L252.3534,52.5185 L252.3534,49.6335 L255.3334,49.6335 L255.3334,48.8105 L252.3534,48.8105 L252.3534,46.0375 L255.7374,46.0375 L255.7374,45.2195 L251.4274,45.2195 L251.4274,53.3385 L255.9014,53.3385 Z M261.1574,52.6235 C260.1834,52.6235 259.5364,52.2285 259.0854,51.8575 L258.5404,52.6025 C259.0034,53.0165 259.8474,53.4555 261.0754,53.4555 C262.8154,53.4555 263.7894,52.4375 263.7894,51.2095 C263.7894,48.7035 259.9154,49.0985 259.9154,47.2215 C259.9154,46.4805 260.4844,45.9455 261.4344,45.9455 C262.1214,45.9455 262.6184,46.1805 263.0234,46.5045 L263.5914,45.7875 C263.1284,45.4025 262.4104,45.1025 261.4944,45.1025 C260.0334,45.1025 258.9794,46.0515 258.9794,47.2815 C258.9794,49.8425 262.8504,49.4245 262.8504,51.2685 C262.8504,52.0215 262.2574,52.6235 261.1574,52.6235 L261.1574,52.6235 Z" id="Fill-10" fill="#FFFFFF"></path>
                    </g>
                </g>
            </g>
        </g>
    </g>
</svg>