<?xml version="1.0" encoding="UTF-8" standalone="no"?>
<svg width="1432px" height="637px" viewBox="0 0 1432 637" version="1.1" xmlns="http://www.w3.org/2000/svg" xmlns:xlink="http://www.w3.org/1999/xlink">
    <!-- Generator: Sketch 43.2 (39069) - http://www.bohemiancoding.com/sketch -->
    <title>map</title>
    <desc>Created with Sketch.</desc>
    <defs></defs>
    <g id="Locations-v2" stroke="none" stroke-width="1" fill="none" fill-rule="evenodd">
        <g id="Locations/Desktop" transform="translate(-4.000000, -600.000000)">
            <g id="Group-9" transform="translate(0.000000, 600.000000)">
                <g id="bg">
                    <g id="map" transform="translate(4.000000, -76.000000)">
                        <g id="world-map" fill-rule="nonzero" fill="#FAF7F4">
                            <path d="M786.842247,578.507617 L782.580918,582.954653 L775.397535,582.954653 L775.397535,576.405935 L780.967701,572.811756 L786.842247,572.811756 L786.842247,578.507617 Z M799.169663,559.318352 L799.169663,565.775692 L793.690812,562.486103 L793.690812,557.460343 L799.169663,557.460343 L799.169663,539.27623 L785.168153,539.27623 L751.86891,561.602788 L743.681071,552.19091 L743.681071,570.679615 L723.439757,570.679615 L735.188851,602.874938 L773.753879,602.874938 L803.430993,568.517015 L804.770267,559.226974 L799.169663,559.318352 L799.169663,559.318352 Z M276.852465,195.636084 L284.522858,190.400155 L293.77603,190.400155 L286.136075,195.636084 L276.852465,195.636084 Z M346.768701,167.836016 L336.967644,176.340211 L314.260847,176.340211 L307.229654,181.158849 L312.64763,181.158849 L305.09899,186.312537 L299.711452,186.312537 L307.229654,181.158849 L292.406317,181.158849 L285.983885,186.15415 L279.439701,186.809022 L280.748538,175.523906 L275.695819,175.523906 L269.790834,179.450091 L258.833131,195.63913 L252.380261,195.63913 L264.798992,175.523906 L279.439701,172.389659 L278.617873,169.639198 L268.969007,169.310239 L264.403297,166.529319 L258.680941,169.310239 L251.984566,169.310239 L254.723992,163.385934 L240.871629,157.044339 L122.741498,157.044339 L83.8416505,198.103275 L83.8416505,229.658956 L98.0440517,243.874242 L147.718974,250.264572 L154.345341,260.322183 L168.316413,259.831791 L179.846352,282.4934 L201.329538,255.503546 L252.404611,255.664979 L255.783237,281.214115 L263.879762,281.42733 L264.092829,249.627975 L346.762613,178.901826 L352.393656,177.927133 L355.589652,167.854292 L346.762613,167.854292 L346.768701,167.836016 Z M395.652234,163.465128 L424.507519,163.465128 L418.511221,153.907046 L413.093245,152.612532 L413.093245,145.756177 L395.652234,163.465128 Z M181.733512,318.07578 L170.602311,294.073969 L179.843308,282.469032 L168.316413,259.801332 L154.345341,260.291724 L147.718974,250.237158 L98.0440517,243.846828 L98.1384097,243.944298 L100.253855,266.325682 L115.533764,295.261876 L121.794874,290.418871 L109.744444,264.708301 L109.744444,250.237158 L116.851732,250.237158 L117.128719,263.697057 L139.957267,317.366082 L177.183021,332.900249 L186.472719,330.433058 L194.648383,338.778866 L198.720996,331.529588 L207.298443,331.529588 L206.074833,322.11771 L213.425625,322.11771 L222.986222,314.990268 L223.391048,304.603698 L212.935572,304.420943 L204.622937,318.066643 L181.733512,318.07578 Z M593.864914,85.3983228 L607.683796,78.6698963 L607.683796,76.7753371 L600.835231,69.8245587 L591.24724,73.0105859 L579.741652,72.7669127 L577.306607,76.0869602 L570.762423,75.9346645 L570.762423,82.0874131 L593.864914,85.3983228 Z M716.865135,231.449954 L716.895573,224.919512 L709.499124,224.724573 L709.438247,229.537119 L716.865135,231.449954 Z M436.591431,22.6220118 L436.591431,29.50578 L470.925569,29.9961723 L479.72217,45.1861511 L479.72217,58.9232284 L463.255176,68.2833256 L463.742185,86.9243263 L474.091128,97.3931367 L486.32723,97.3931367 L505.016202,77.6281933 L531.406004,69.8397883 L541.298375,62.2585055 L561.265746,61.0249099 L575.236818,56.8976948 L601.565744,15.0163616 L617.789233,11.6963141 L623.511589,5.93953453 L576.728283,1.23054972 L536.306533,5.93953453 L487.362124,5.93953453 L459.146038,15.7504272 L436.591431,22.6220118 Z M1232.85122,287.768925 L1228.86383,283.596021 L1222.31965,292.916521 L1228.86383,299.038811 L1232.85122,287.768925 Z M1170.02705,172.237364 L1171.33589,164.878433 L1157.60832,162.670144 L1152.37297,154.083709 L1126.22667,154.083709 L1072.77743,140.84007 L1066.90288,154.083709 L1045.17011,147.46189 L1028.94662,159.828305 L1081.7871,190.713885 L1142.90673,191.368757 L1150.27275,176.37067 L1170.02705,172.237364 Z M1181.62395,312.288542 L1173.77093,314.024713 L1173.77093,318.654504 L1176.96693,322.522817 L1181.62395,316.705119 L1181.62395,312.288542 Z M1152.37297,154.083709 L1157.60832,162.670144 L1171.33589,164.878433 L1170.02705,172.237364 L1150.30318,176.37067 L1142.90673,191.368757 L1081.7871,190.713885 L1028.94662,159.828305 L1006.08763,177.266169 L1009.89239,194.965982 L987.002964,203.473223 L993.547148,219.494737 L1017.8976,230.612327 L1018.87162,250.237158 L1082.60893,272.295676 L1094.35802,261.519228 L1119.37811,272.295676 L1115.93861,281.616176 L1129.17917,303.699061 L1152.37297,291.941829 L1167.53113,304.917427 L1173.95356,301.262329 L1174.19706,307.506455 L1212.18377,293.921673 L1224.6025,266.106376 L1202.44359,229.616313 L1213.82743,217.192025 L1200.73906,217.192025 L1196.5386,219.912027 L1188.32033,206.403394 L1198.79102,197.244327 L1205.9744,210.963129 L1216.0494,204.02758 L1235.37758,190.704747 L1235.37758,164.866249 L1203.35673,156.691013 L1179.82811,133.630389 L1156.96912,133.630389 L1162.17403,152.109956 L1152.37297,154.083709 Z M1284.44374,192.949586 L1293.39253,192.82775 L1297.19729,186.327767 L1277.32123,177.988051 L1277.71692,194.420763 L1281.64343,196.750889 L1284.44374,192.949586 Z M1259.72803,230.932148 L1258.267,235.985322 L1277.96043,233.076473 L1279.48233,240.685169 L1283.95673,238.784518 L1284.44374,232.796248 L1297.65386,229.400053 L1296.95378,212.120576 L1290.95748,201.645674 L1284.99162,199.915594 L1288.40068,215.614241 L1276.19502,226.692234 L1259.72803,230.932148 Z M1256.25809,240.685169 L1263.3806,239.786624 L1265.69389,243.222416 L1263.13709,251.315412 L1256.25809,240.685169 Z M1275.25144,237.334662 L1271.81194,243.587926 L1267.27667,238.437283 L1275.25144,237.334662 Z M1253.70129,344.063528 L1242.89578,342.93654 L1238.96927,338.032616 L1242.89578,329.016708 L1238.9997,320.366309 L1231.8772,320.214013 L1230.14223,335.443589 L1240.21723,347.59679 L1252.0272,349.089288 L1253.70129,344.063528 Z M1219.67153,371.080796 L1224.45031,372.025029 L1232.94253,364.958506 L1232.7599,359.171268 L1219.67153,371.080796 Z M1256.95816,382.015631 L1256.95816,388.808022 L1264.05023,386.675881 L1261.64563,382.289764 L1267.36798,380.827724 L1262.49789,365.628608 L1258.9062,375.010026 L1247.15711,375.010026 L1256.95816,382.015631 Z M1236.04721,348.114596 L1241.09993,353.079437 L1239.45628,356.125352 L1235.37758,352.135204 L1236.04721,348.114596 Z M1241.09993,360.267797 L1244.69162,362.704529 L1248.61813,356.764995 L1243.38279,356.125352 L1241.09993,360.267797 Z M1254.49268,354.05413 L1259.42365,360.420093 L1264.81118,360.420093 L1259.66715,352.135204 L1254.49268,354.05413 Z M1254.49268,359.414941 L1257.26254,364.257946 L1255.04057,367.212484 L1251.14449,361.333867 L1254.49268,359.414941 Z M1248.61813,364.318864 L1251.14449,368.126258 L1248.61813,371.172173 L1245.72652,367.638912 L1248.61813,364.318864 Z M1258.20612,464.103044 L1261.52387,468.671917 L1270.83792,467.544928 L1270.83792,464.103044 L1258.20612,464.103044 Z M1183.35892,410.373101 L1183.81549,423.531455 L1191.30326,436.62889 L1215.10582,436.62889 L1226.88536,421.582069 L1226.88536,394.290669 L1218.39313,395.173985 L1211.51413,408.180042 L1188.47252,413.327639 L1183.51111,410.312183 L1183.35892,410.373101 Z M1166.43536,444.731024 L1166.43536,434.679504 L1127.20069,393.955618 L1113.7775,388.808022 L1159.22154,450.731477 L1166.43536,444.731024 Z M1212.27508,462.641005 L1213.0056,466.05243 L1163.96987,457.737082 L1171.33589,451.828006 L1183.57199,456.488256 L1194.62101,454.051524 L1212.27508,462.641005 Z M1243.62629,462.641005 L1236.04721,462.641005 L1237.50824,467.544928 L1244.7525,467.544928 L1247.79631,465.077737 L1243.62629,462.641005 Z M1230.38573,470.590843 L1232.60771,473.301708 L1237.8735,473.301708 L1236.04721,469.372477 L1230.38573,470.590843 Z M1258.20612,464.103044 L1250.62705,472.570688 L1256.37984,473.301708 L1261.52387,468.671917 L1258.20612,464.103044 Z M1232.97297,449.147601 L1238.60401,447.411429 L1236.89948,437.481746 L1240.21723,433.796189 L1243.01753,441.167303 L1249.77478,443.512658 L1249.77478,438.212766 L1245.97002,429.80604 L1253.18384,423.744669 L1241.67825,424.232015 L1239.30409,420.942427 L1243.8698,415.916667 L1252.33158,418.840745 L1256.50159,418.475235 L1262.7414,411.104121 L1257.26254,410.982284 L1253.70129,413.327639 L1241.92176,410.464479 L1234.12961,417.500543 L1234.6775,428.648592 L1230.14223,434.679504 L1232.97297,449.147601 Z M1275.25144,433.339301 L1273.9426,437.938633 L1286.69615,436.62889 L1286.69615,433.339301 L1275.25144,433.339301 Z M1278.20393,403.641629 L1273.9426,407.844992 L1272.32939,418.32294 L1278.20393,419.75452 L1276.8951,410.464479 L1280.30416,406.200197 L1278.20393,403.641629 Z M1307.08966,431.511752 L1305.38513,422.434925 L1291.41405,424.41477 L1307.08966,431.511752 Z M1306.14608,439.065622 L1325.62644,447.198215 L1329.12682,457.158358 L1322.64351,461.118047 L1339.32357,466.905286 L1339.32357,434.039862 L1325.77863,426.973339 L1313.14683,437.238073 L1299.78452,431.968639 L1298.29306,439.339754 L1306.14608,439.065622 Z M1248.13112,222.257382 L1234.98188,211.490072 L1229.16821,216.863066 L1237.02123,233.871456 L1246.51791,233.216585 L1248.13112,222.257382 Z M1234.98188,211.490072 L1229.16821,206.726261 L1236.68641,205.745476 L1235.37758,190.701701 L1216.0494,204.024534 L1221.71088,214.776614 L1229.16821,216.863066 L1234.98188,211.490072 Z M1218.14963,385.046317 L1207.67894,399.148904 L1183.51111,410.327412 L1188.47252,413.342868 L1211.51413,408.195272 L1218.39313,395.189214 L1226.88536,394.305899 L1226.88536,384.315297 L1218.14963,385.046317 Z M1138.03664,385.046317 L1142.2371,398.692017 L1159.52592,413.434246 L1160.86519,408.195272 L1144.55039,384.071624 L1138.03664,385.046317 Z M1345.38074,469.052656 L1356.97765,458.391953 L1372.01405,473.073264 L1385.74162,475.875506 L1368.75718,458.8793 L1369.579,449.89385 L1339.32357,434.055091 L1339.32357,466.920516 L1345.38074,469.052656 Z M1377.21896,451.447267 L1383.33701,455.102365 L1393.89902,449.16283 L1393.89902,443.010082 L1377.21896,451.447267 Z M1385.74162,434.176928 L1398.06903,443.010082 L1403,441.334829 L1390.48996,433.872336 L1385.74162,434.176928 Z M1129.17917,303.689923 L1115.93861,281.607038 L1119.34767,272.286538 L1111.67728,268.99695 L1101.38921,276.398524 L1096.54956,309.873131 L1104.18951,316.269553 L1107.11157,331.560047 L1112.49911,333.174382 L1116.36474,328.331377 L1123.54812,336.433511 L1127.53551,351.236659 L1126.59193,366.527153 L1132.77086,354.40441 L1121.66096,314.320167 L1129.17917,308.867979 L1129.17917,303.689923 Z M1151.39895,322.513679 L1160.28687,334.605962 L1151.97728,342.951769 L1170.60537,342.951769 L1170.60537,338.200142 L1152.46429,318.88904 L1148.44646,306.461706 L1135.8451,300.308957 L1129.17917,303.689923 L1129.17917,308.867979 L1135.69291,312.675373 L1135.69291,322.513679 L1151.39895,322.513679 Z M1135.69291,322.513679 L1135.69291,312.675373 L1129.17917,308.867979 L1121.66096,314.320167 L1132.77086,354.40441 L1126.59193,366.527153 L1126.22667,372.558065 L1137.00175,381.69581 L1138.03664,385.046317 L1144.55039,384.071624 L1134.07969,368.628834 L1136.51474,344.748859 L1148.29427,356.414714 L1148.29427,346.637327 L1160.28687,334.605962 L1151.39895,322.513679 L1135.69291,322.513679 Z M1148.29427,346.637327 L1148.29427,356.414714 L1154.16882,362.262871 L1160.77388,361.349097 L1170.60537,353.977982 L1170.60537,342.951769 L1151.97728,342.951769 L1148.29427,346.637327 Z M1152.46429,318.88904 L1170.60537,338.200142 L1170.60537,353.977982 L1160.77388,361.349097 L1161.01738,371.887963 L1179.82811,359.46063 L1179.18891,340.971925 L1159.55635,320.229242 L1160.53037,308.867979 L1167.53113,304.908289 L1152.37297,291.932691 L1135.8451,300.308957 L1148.44646,306.461706 L1152.46429,318.88904 Z M1074.02539,278.68296 L1069.85538,280.632346 L1075.76036,299.303805 L1079.56512,295.618248 L1096.54956,309.873131 L1097.64533,302.258343 L1088.72698,293.912536 L1087.26595,283.921934 L1080.14344,286.846013 L1074.02539,278.68296 Z M1080.14344,277.403676 L1069.85538,274.845107 L1071.28597,268.387767 L1068.33347,267.364339 L1062.03279,277.403676 L1027.42471,264.287965 L1027.51603,253.225201 L1018.87162,250.228021 L1017.8976,230.603189 L1010.34896,227.161305 L1003.37864,227.161305 L993.0297,234.520236 L992.755758,240.785684 L999.025999,244.340267 L1002.00893,256.587892 L988.403115,269.118786 L979.697828,269.118786 L979.697828,278.378368 L986.211574,280.84556 L986.211574,288.825857 L974.462481,291.96315 L975.466937,293.151057 L985.17668,296.227431 L980.641408,300.887681 L984.933175,306.461706 L992.634006,307.375481 L994.003719,300.979059 L997.047525,301.009518 L1021.79367,372.223014 L1037.49971,362.567463 L1039.93476,333.935861 L1075.76036,299.303805 L1069.85538,280.632346 L1074.02539,278.68296 L1080.14344,286.846013 L1087.26595,283.921934 L1088.72698,293.912536 L1097.64533,302.258343 L1101.38921,276.398524 L1111.67728,268.99695 L1094.35802,261.51009 L1082.60893,272.286538 L1080.14344,277.403676 Z M1027.51603,253.225201 L1027.42471,264.287965 L1062.03279,277.403676 L1068.33347,267.364339 L1027.51603,253.225201 Z M1071.28597,268.387767 L1069.85538,274.845107 L1080.14344,277.403676 L1082.60893,272.286538 L1071.28597,268.387767 Z M875.234388,185.630252 L882.569962,191.728175 L891.914448,189.145238 L900.193602,196.059466 L898.763013,178.106842 L911.516562,175.164488 L928.318374,186.693277 L942.38076,183.994596 L952.668826,197.567194 L962.591635,197.128582 L972.301378,189.145238 L995.221241,188.149224 L1009.89239,194.950753 L1006.08763,177.25094 L1028.94662,159.819167 L1015.76694,152.10691 L938.941259,124.99522 L908.655384,131.827207 L908.655384,145.527734 L854.962637,145.527734 L854.962637,163.230592 L862.14602,172.222134 L877.517243,166.008467 L886.679101,172.222134 L875.569207,177.61645 L875.234388,185.630252 Z M934.04073,227.907555 L928.896697,219.570885 L908.807574,213.192739 L896.936729,217.152428 L896.723662,222.443183 L881.595944,222.434045 L873.255914,207.707045 L853.318981,209.677752 L853.318981,215.565506 L877.517243,256.654902 L884.700627,257.343278 L901.380686,274.756775 L932.092694,283.92498 L940.615352,283.92498 L946.794279,273.294736 L939.945715,264.702209 L930.144658,236.250316 L934.04073,227.907555 Z M900.193602,196.077741 L891.914448,189.163514 L882.569962,191.74645 L897.484614,204.106774 L896.936729,217.161566 L908.807574,213.201876 L928.927135,219.580023 L934.071168,227.916692 L953.186273,218.1058 L921.682876,192.876485 L908.320565,192.876485 L900.193602,196.077741 Z M979.697828,269.118786 L988.403115,269.118786 L1002.00893,256.587892 L999.025999,244.340267 L992.755758,240.785684 L993.0297,234.520236 L1003.37864,227.161305 L1010.34896,227.161305 L995.830002,220.524256 L980.367465,222.756912 L975.466937,244.011308 L957.599793,260.541489 L938.423812,260.349597 L939.945715,264.699164 L946.794279,273.29169 L940.615352,283.921934 L967.40085,283.921934 L974.462481,291.96315 L986.211574,288.825857 L986.211574,280.84556 L979.697828,278.378368 L979.697828,269.118786 Z M928.318374,186.696323 L911.516562,175.167534 L898.763013,178.109888 L900.193602,196.062512 L908.320565,192.861255 L921.682876,192.861255 L953.186273,218.09057 L963.504777,220.853215 L958.817315,207.055219 L973.458025,202.851857 L974.279852,196.613822 L952.668826,197.57024 L942.38076,183.997642 L928.318374,186.696323 Z M934.04073,227.907555 L930.144658,236.250316 L938.423812,260.352643 L957.599793,260.544535 L975.466937,244.014354 L980.367465,222.759958 L977.201907,213.804967 L963.504777,220.859307 L953.186273,218.096662 L934.04073,227.907555 Z M975.89307,209.677752 L963.596091,205.684558 L958.817315,207.061311 L963.504777,220.859307 L977.201907,213.804967 L980.367465,222.759958 L995.830002,220.527302 L993.547148,219.488645 L989.042314,208.428927 L975.89307,209.677752 Z M972.301378,189.154376 L962.591635,197.13772 L974.279852,196.619914 L973.458025,202.857948 L963.596091,205.684558 L975.89307,209.677752 L989.042314,208.428927 L987.002964,203.467131 L1009.89239,194.95989 L995.221241,188.158362 L972.301378,189.154376 Z M854.962637,200.643568 L863.7288,208.648233 L873.255914,207.707045 L866.620416,196.007685 L859.437032,194.228871 L854.962637,200.643568 Z M836.121475,197.332658 L849.118528,200.643568 L854.962637,200.643568 L859.437032,194.228871 L842.848287,186.702415 L836.121475,188.158362 L836.121475,197.332658 Z M853.318981,209.677752 L863.7288,208.648233 L854.962637,200.643568 L849.118528,200.643568 L853.318981,209.677752 Z M754.243079,109.924032 L750.803578,110.737291 L751.686282,111.398254 L750.712264,115.814831 L741.063397,111.398254 L741.093835,117.130667 L754.243079,120.487265 L763.709318,124.821603 L767.361885,121.696494 L766.053049,112.388177 L761.243834,113.850216 L754.243079,109.924032 Z M741.124273,123.68243 L748.459847,126.1283 L750.468759,130.282928 L752.051539,134.714735 L763.709318,124.821603 L754.243079,120.487265 L741.093835,117.130667 L741.124273,123.68243 Z M778.380465,121.696494 L767.361885,121.696494 L752.051539,134.714735 L754.486584,141.430978 L776.432429,144.93378 L790.129558,141.942692 L781.972157,138.622644 L786.872685,135.494489 L778.380465,121.696494 Z M747.820648,104.67592 L746.664001,107.618274 L750.803578,110.737291 L754.243079,109.924032 L761.243834,113.850216 L766.053049,112.388177 L764.561583,101.785346 L761.822158,104.359145 L747.820648,104.67592 Z M776.432429,144.942918 L754.486584,141.440116 L755.856297,145.253601 L748.003276,155.05231 L748.003276,160.595876 L777.680389,160.595876 L780.541568,166.023697 L775.397535,174.092326 L779.902368,175.977747 L781.119891,172.237364 L798.713092,172.237364 L794.81702,176.282339 L800.234996,179.349575 L807.540131,178.776943 L800.600253,169.907238 L818.863092,166.023697 L823.520116,155.557932 L790.129558,141.951829 L776.432429,144.942918 Z M734.640965,59.1699475 L703.89852,81.7340869 L703.89852,101.803622 L699.667628,108.434579 L711.234093,121.760458 L730.105694,105.038384 L721.278655,94.0730891 L741.154711,72.3343928 L745.081222,72.3343928 L739.663246,59.1699475 L734.640965,59.1699475 Z M680.430771,109.945353 L698.419668,107.002999 L699.667628,108.437625 L703.89852,101.806668 L703.89852,81.7371328 L734.671403,59.1729935 L751.686282,59.1729935 L751.686282,53.55328 L734.24527,54.4426872 L674.434472,95.8671332 L680.430771,109.945353 Z M751.686282,59.1699475 L739.693684,59.1699475 L745.081222,72.3343928 L748.24678,72.3343928 L738.689228,93.9999872 L749.859998,99.641022 L766.874876,99.641022 L776.432429,88.6026256 L760.574197,53.087255 L751.686282,53.5380504 L751.686282,59.1699475 Z M1267.30711,157.857598 L1273.18165,157.857598 L1252.45333,136.600156 L1246.57878,136.432631 L1263.2284,157.038247 L1271.38581,172.246501 L1277.44298,172.246501 L1267.30711,157.857598 Z M748.338095,126.149622 L741.002521,123.703752 L741.032959,128.586354 L750.347007,130.30425 L748.338095,126.149622 Z M1186.95061,52.6516891 L1181.31957,44.9973044 L1146.49842,39.3014431 L1136.69737,48.1315511 L1108.51172,48.1315511 L1096.76263,39.3014431 L1033.02532,39.3014431 L1029.09881,25.2414988 L970.262028,25.2414988 L918.395565,48.457464 L929.748963,62.5235001 L919.947906,72.6603057 L911.090429,43.6906068 L895.445264,42.4509193 L902.963466,59.5781002 L842.48303,61.2137566 L785.959543,84.4327677 L778.502217,70.2144358 L799.991491,71.0246493 L810.462186,65.7917671 L769.279483,52.6516891 L760.513321,53.0994387 L776.371553,88.6148092 L766.814,99.6532057 L764.500707,101.815805 L765.992172,112.418636 L767.301009,121.726953 L778.319589,121.726953 L786.811809,135.524948 L781.911281,138.653103 L790.068682,141.973151 L823.459239,155.579254 L818.802215,166.045018 L820.993756,171.274854 L815.606219,172.746031 L816.549799,181.347696 L836.060598,188.185775 L842.787411,186.729828 L859.376156,194.256284 L866.55954,196.035099 L862.085144,188.185775 L862.085144,172.258685 L854.901761,163.267143 L854.901761,145.564285 L908.594508,145.564285 L908.594508,131.863758 L938.880383,125.031771 L1015.70606,152.143461 L1028.88574,159.849627 L1045.10923,147.483211 L1066.84201,154.105031 L1072.71656,140.861392 L1126.1658,154.105031 L1152.3121,154.105031 L1162.11315,152.143461 L1156.87781,133.663894 L1179.76723,133.663894 L1203.29585,156.724518 L1235.3167,164.899754 L1235.3167,190.738252 L1249.34865,188.271061 L1256.89729,177.001175 L1256.89729,156.069646 L1235.3167,131.540891 L1214.40575,131.214978 L1217.99744,105.379526 L1261.12818,105.705439 L1265.81564,91.0424036 L1284.0176,97.9353095 L1284.07848,91.1764238 L1288.58331,91.6424489 L1296.43633,99.1628133 L1288.85726,104.32564 L1287.94411,119.765383 L1318.65612,148.875194 L1318.65612,120.749214 L1301.33686,104.066737 L1342.36737,91.0667709 L1342.88482,86.8755917 L1322.24781,81.2558782 L1330.28346,74.9904308 L1348.72893,78.8039165 L1361.23897,79.0506357 L1351.19441,68.2650502 L1286.78747,55.4996198 L1186.95061,52.6516891 Z M727.031449,162.121879 L719.452371,168.338592 L730.47095,172.435348 L742.220044,170.406769 L751.534092,160.605014 L747.851086,160.605014 L747.851086,158.287072 L727.031449,162.121879 Z M721.400407,156.791528 L727.031449,162.121879 L747.851086,158.287072 L747.851086,155.061448 L728.979485,152.767874 L728.188096,152.457191 L721.400407,156.791528 Z M681.648294,171.951047 L688.405544,172.435348 L694.523595,171.022043 L692.332055,164.397178 L686.57926,164.397178 L682.835378,166.124212 L681.648294,171.951047 Z M707.520649,156.791528 L721.400407,156.791528 L728.188096,152.457191 L714.917099,147.224308 L703.046254,150.903774 L707.520649,156.791528 Z M614.258418,220.633909 L616.997844,220.841031 L620.163402,194.231917 L609.875336,192.510975 L609.357889,211.968281 L614.258418,220.633909 Z M775.245344,174.092326 L780.389377,166.023697 L777.528199,160.595876 L768.731598,160.595876 L775.245344,174.092326 Z M750.316569,130.292066 L741.002521,128.57417 L731.201464,128.897037 L728.979485,126.85932 L714.917099,130.292066 L713.669138,130.276837 L714.917099,147.215171 L728.218534,152.448053 L728.979485,152.758736 L747.851086,155.05231 L755.704106,145.253601 L754.334393,141.440116 L751.899348,134.723873 L750.316569,130.292066 Z M751.534092,160.595876 L742.220044,170.397631 L750.560073,184.256545 L771.37971,181.883777 L777.315133,183.519433 L779.750178,175.977747 L775.245344,174.092326 L768.731598,160.595876 L751.534092,160.595876 Z M713.6387,130.276837 L695.588928,130.069714 L694.7671,126.85932 L688.435982,126.85932 L689.714381,129.950924 L680.217705,135.643739 L679.365439,152.045992 L685.118233,155.05231 L682.835378,166.115074 L686.57926,164.38804 L699.972009,164.38804 L701.128656,164.049944 L710.838398,161.198967 L707.520649,156.78239 L703.046254,150.894636 L714.917099,147.215171 L713.6387,130.276837 Z M688.435982,126.85932 L694.7671,126.85932 L694.432281,125.500842 L696.50207,113.859354 L690.810152,113.78016 L686.761889,122.911814 L688.435982,126.85932 Z M705.329109,122.783885 L701.767855,119.25367 L698.602296,120.554275 L697.628278,125.558714 L703.533263,125.500842 L705.329109,122.783885 Z M710.838398,161.192875 L699.972009,164.381948 L692.332055,164.381948 L694.523595,171.006814 L706.120498,168.323363 L719.452371,168.323363 L725.022537,163.742306 L727.031449,162.10665 L721.400407,156.776298 L707.520649,156.776298 L710.838398,161.192875 Z M717.473897,214.16134 L705.694365,214.16134 L705.694365,217.106739 L710.107885,220.131333 L717.473897,221.273551 L717.473897,214.16134 Z M686.57926,197.564148 L686.57926,209.665569 L692.210303,209.665569 L692.210303,199.199804 L686.57926,197.564148 Z M681.648294,171.923634 L680.582962,177.123011 L687.401088,180.232891 L695.314985,180.232891 L719.665437,204.548431 L720.913398,214.895405 L725.387794,212.278964 L726.787945,204.840839 L732.327672,203.72908 L702.620121,178.000235 L711.051465,177.494613 L706.120498,168.311179 L688.405544,172.407935 L681.648294,171.923634 Z M689.410001,189.227478 L689.410001,194.216687 L692.210303,195.27362 L693.458263,189.227478 L689.410001,189.227478 Z M633.221332,158.64649 L633.221332,162.243716 L643.32677,167.708088 L644.666045,185.627206 L659.641573,195.212701 L664.268159,189.227478 L686.183566,189.385866 L686.822765,180.232891 L687.401088,180.232891 L680.582962,177.123011 L685.118233,155.034035 L665.181301,144.626143 L641.804867,158.64649 L633.221332,158.64649 Z M670.751467,141.296958 L665.181301,144.626143 L676.352071,150.456024 L679.548067,148.732036 L679.66982,146.033356 L670.751467,141.296958 Z M679.66982,146.033356 L680.217705,135.625464 L670.751467,141.296958 L679.66982,146.033356 Z M676.352071,150.456024 L679.365439,152.027717 L679.517629,148.732036 L676.352071,150.456024 Z M639.765516,124.961715 L639.887269,132.482079 L634.743236,135.302597 L639.278507,141.909186 L630.086212,150.632687 L642.231,148.424399 L654.588854,146.46283 L655.380244,141.924416 L657.906603,141.924416 L658.454488,136.859059 L650.449277,135.168576 L640.435154,112.141458 L632.795199,111.906922 L632.795199,124.306843 L639.765516,124.961715 Z M630.086212,130.395627 L630.086212,125.482566 L621.13742,124.876429 L626.281453,131.744968 L630.086212,130.395627 Z M612.066877,131.531754 L612.066877,144.942918 L617.21091,144.909413 L617.21091,140.331402 L627.011967,141.680743 L626.281453,131.744968 L621.13742,124.876429 L612.066877,131.531754 Z M616.997844,220.837986 L638.456679,222.443183 L659.641573,195.224885 L644.666045,185.63939 L610.027527,185.889155 L609.875336,192.507929 L620.163402,194.228871 L616.997844,220.837986 Z M664.542101,209.385345 L664.542101,203.625519 L657.906603,209.385345 L664.542101,209.385345 Z M742.950557,202.687377 L756.556372,198.282984 L753.421252,190.966696 L742.220044,193.159755 L742.950557,202.687377 Z M734.336585,171.740879 L736.832506,185.630252 L742.220044,193.150617 L753.421252,190.957558 L750.560073,184.241315 L742.220044,170.382401 L734.336585,171.740879 Z M711.051465,177.497659 L712.299426,177.424557 L718.691419,174.077096 L721.583035,169.112255 L719.452371,168.314225 L706.120498,168.314225 L711.051465,177.497659 Z M778.989226,204.435732 L768.853351,204.353493 L777.19338,221.124302 L815.514904,223.241213 L853.166791,215.556369 L853.166791,209.668615 L848.966338,200.63443 L835.969284,197.323521 L783.49406,199.041417 L778.989226,204.435732 Z M768.822913,200.63443 L778.167399,200.63443 L774.393078,192.501837 L768.731598,194.332432 L768.822913,200.63443 Z M726.970573,189.760513 L730.349198,190.59814 L736.832506,185.630252 L735.006222,175.414253 L721.156902,177.290537 L726.970573,189.760513 Z M737.897838,204.31085 L742.220044,209.306151 L750.560073,211.639322 L745.476917,213.79583 L752.203729,222.257382 L756.43462,215.556369 L751.71672,205.252038 L761.091644,200.63443 L768.822913,200.63443 L768.731598,194.332432 L737.897838,204.31085 Z M730.47095,172.420118 L721.583035,169.121392 L718.691419,174.086234 L712.299426,177.433695 L714.521404,177.299674 L724.839908,189.239662 L726.970573,189.769651 L721.156902,177.299674 L735.006222,175.423391 L734.336585,171.750017 L730.47095,172.420118 Z M734.397461,191.609384 L739.267551,189.01731 L736.832506,185.63939 L730.349198,190.607278 L734.397461,191.609384 Z M734.397461,191.609384 L737.136887,203.43058 L737.897838,204.319988 L742.950557,202.687377 L742.220044,193.159755 L739.267551,189.01731 L734.397461,191.609384 Z M756.556372,198.282984 L774.393078,192.510975 L777.315133,183.513341 L771.37971,181.877685 L750.560073,184.250453 L756.556372,198.282984 Z M889.662031,283.995036 L893.801608,286.73636 L896.510596,283.934118 L891.762258,277.233104 L889.662031,283.995036 Z M807.08356,227.554228 L796.156295,231.60225 L803.978878,233.563819 L807.08356,227.554228 Z M814.114753,241.544117 L814.114753,261.199407 L818.223892,261.689799 L824.341943,258.826639 L826.229103,247.788243 L831.00788,245.765755 L831.251384,245.662194 L829.851233,239.798807 L820.019738,245.662194 L814.114753,241.544117 Z M888.322756,283.120858 L877.517243,265.454551 L872.799343,265.454551 L869.420718,261.071479 L860.197984,261.041019 L831.00788,245.771847 L826.198665,247.794335 L824.341943,258.832731 L818.193454,261.695891 L814.114753,261.205499 L852.192773,327.423694 L852.953725,329.890885 L856.910673,323.098495 L870.425174,324.804207 L869.177213,329.951804 L888.322756,319.900284 L915.260444,312.681465 L915.260444,298.639796 L901.228496,296.659951 L896.967167,288.831949 L888.322756,283.120858 Z M865.159389,261.056249 L869.451156,261.071479 L872.799343,265.454551 L877.517243,265.454551 L871.794887,256.13405 L866.407349,256.13405 L865.159389,261.056249 Z M837.826006,235.041088 L829.851233,239.804899 L831.31226,245.930234 L860.197984,261.041019 L865.159389,261.056249 L866.407349,256.13405 L877.030234,256.070086 L853.166791,215.589874 L842.209088,217.828621 L837.826006,235.041088 Z M907.194357,290.842253 L896.967167,288.831949 L901.228496,296.659951 L909.142393,297.78694 L920.404477,286.334299 L915.260444,281.765426 L907.194357,290.842253 Z M909.142393,297.78694 L915.260444,298.639796 L915.260444,312.681465 L901.715505,316.306104 L901.715505,324.469156 L909.264145,329.586294 L934.223359,298.639796 L920.404477,286.334299 L909.142393,297.78694 L909.142393,297.78694 Z M818.558711,233.304916 L814.114753,241.531933 L820.019738,245.65001 L837.826006,235.022812 L842.209088,217.804254 L815.514904,223.25035 L813.719059,231.626617 L818.558711,233.304916 Z M888.322756,319.900284 L869.177213,329.951804 L870.425174,324.804207 L856.910673,323.098495 L852.953725,329.890885 L859.710975,351.943311 L909.264145,329.586294 L901.715505,324.469156 L901.715505,316.306104 L888.322756,319.900284 Z M814.114753,241.528887 L818.558711,233.30187 L813.719059,231.623571 L811.953651,239.993746 L814.114753,241.528887 Z M813.993001,261.473539 L814.114753,261.184177 L814.114753,241.528887 L811.953651,239.993746 L808.544588,252.588605 L813.993001,261.473539 Z M854.719132,542.124161 L859.893603,554.368739 L872.281896,554.917004 L893.375475,487.206311 L885.857273,487.206311 L861.354631,512.670161 L858.889147,530.336469 L854.719132,542.124161 Z M718.539229,375.817194 L714.947537,365.18695 L722.130921,365.18695 L713.273444,346.363194 L713.273444,356.780224 L700.550332,383.157849 L689.440439,383.797491 L687.888097,394.640949 L692.697312,394.640949 L692.453807,405.728081 L723.104939,405.728081 L724.474652,401.79885 L724.413775,401.79885 L715.251918,388.88417 L718.539229,375.817194 Z M700.885151,413.799756 L692.271179,413.799756 L691.997236,426.988568 L703.046254,441.761257 L703.046254,429.120709 L717.230392,429.120709 L709.986133,405.728081 L700.885151,405.728081 L700.885151,413.799756 Z M700.885151,413.799756 L700.885151,405.728081 L692.484245,405.728081 L692.271179,413.799756 L700.885151,413.799756 Z M672.12118,385.960091 L674.069216,394.640949 L687.888097,394.640949 L689.440439,383.797491 L700.550332,383.157849 L713.273444,356.780224 L713.273444,346.363194 L665.637872,346.363194 L657.906603,383.888869 L672.12118,385.960091 Z M601.839687,378.771732 L605.340065,382.700962 L605.340065,399.057526 L631.273296,391.564575 L631.273296,367.562764 L605.948826,362.567463 L605.948826,375.177552 L601.839687,378.771732 Z M605.340065,399.057526 L605.340065,382.700962 L595.96514,372.131637 L587.655549,379.959638 L605.340065,399.057526 Z M761.456901,475.38816 L752.50811,470.971583 L752.50811,454.645478 L742.402672,454.645478 L740.363322,461.833837 L730.288322,462.168888 L727.670648,453.12252 L711.660226,453.244357 L711.660226,488.972941 L702.528807,504.019762 L703.320196,513.827609 L759.782807,513.827609 L750.560073,502.374968 L750.560073,489.612584 L761.822158,489.612584 L761.456901,475.38816 Z M648.866498,386.477897 L644.666045,360.770373 L631.273296,360.770373 L631.273296,391.564575 L648.866498,386.477897 Z M709.986133,405.728081 L717.230392,429.120709 L703.046254,429.120709 L703.046254,441.761257 L708.61642,449.19329 L722.130921,443.010082 L736.345497,419.40424 L738.597914,401.79885 L724.474652,401.79885 L723.104939,405.728081 L709.986133,405.728081 Z M842.087335,340.880547 L850.457803,354.130278 L853.6538,351.449873 L832.438469,314.990268 L821.480765,340.880547 L842.087335,340.880547 Z M587.685987,379.959638 L595.96514,372.131637 L587.47292,362.567463 L579.224205,370.852352 L587.685987,379.959638 Z M852.679782,362.780677 L858.006443,358.942824 L853.6538,351.449873 L847.292244,356.780224 L852.679782,362.780677 Z M813.292926,481.754122 L813.292926,489.612584 L820.171928,494.211915 L820.171928,504.019762 L813.627744,509.746083 L813.627744,498.262983 L807.08356,492.902172 L806.900932,493.024008 L794.543078,501.643948 L806.900932,509.746083 L806.900932,521.076887 L799.169663,539.169623 L799.169663,559.211745 L804.770267,559.120367 L805.135524,556.409503 L816.732427,548.307368 L815.880161,523.909588 L843.091791,501.58303 L840.382804,476.119179 L813.292926,481.754122 Z M858.006443,358.942824 L852.679782,362.780677 L858.097758,368.872507 L879.678346,376.517754 L845.983408,404.601092 L845.983408,429.029331 L898.793451,367.562764 L896.632348,356.780224 L859.924042,362.232412 L858.006443,358.942824 Z M723.439757,570.573008 L743.711509,570.573008 L743.711509,518.701073 L770.618758,518.701073 L767.118381,513.827609 L703.320196,513.827609 L723.439757,570.573008 Z M823.824496,393.026614 L814.571324,394.336358 L817.219436,405.728081 L815.910599,415.383632 L811.771022,422.693828 L837.095493,439.415902 L845.983408,429.029331 L845.983408,404.601092 L855.784465,396.40758 L827.050931,396.40758 L823.824496,393.026614 Z M811.771022,422.693828 L810.188243,425.465611 L801.087262,425.465611 L803.430993,421.445003 L799.291416,421.445003 L789.977368,444.533039 L806.900932,468.382555 L813.292926,468.382555 L813.292926,481.754122 L840.382804,476.119179 L837.095493,439.415902 L811.771022,422.693828 Z M604.457361,278.012859 L589.420956,278.012859 L589.420956,295.283197 L583.881229,303.689923 L565.314009,303.689923 L564.644371,323.092403 L587.47292,339.509885 L587.47292,333.631269 L614.928055,333.631269 L612.310381,286.785094 L626.768462,286.785094 L604.457361,270.306693 L604.457361,278.012859 Z M795.517096,430.826421 L799.291416,421.445003 L791.255767,421.445003 L788.698969,432.258001 L795.517096,430.826421 Z M789.977368,444.533039 L795.517096,430.826421 L788.698969,432.258001 L786.842247,440.086003 L789.977368,444.533039 Z M570.427604,361.349097 L579.224205,370.852352 L587.47292,362.567463 L595.96514,372.131637 L601.839687,378.771732 L605.948826,375.177552 L605.948826,362.567463 L603.970352,353.582013 L577.824054,353.582013 L570.427604,361.349097 Z M614.928055,333.631269 L587.47292,333.631269 L587.47292,339.509885 L593.682286,353.582013 L603.970352,353.582013 L605.948826,362.567463 L618.611061,365.065113 L618.611061,352.363647 L667.220651,332.656576 L667.220651,316.604603 L626.768462,286.785094 L612.310381,286.785094 L614.928055,333.631269 Z M783.889755,478.830044 L793.690812,482.759274 L790.281748,489.612584 L761.456901,475.38816 L761.822158,489.612584 L750.560073,489.612584 L750.560073,502.374968 L759.782807,513.827609 L777.04119,513.827609 L806.900932,493.024008 L806.900932,468.382555 L803.15705,463.113122 L786.842247,465.580313 L783.889755,478.830044 Z M743.711509,552.084303 L751.86891,561.496181 L785.168153,539.169623 L770.618758,518.701073 L743.711509,518.701073 L743.711509,552.084303 Z M618.611061,365.065113 L631.273296,367.562764 L631.273296,360.770373 L644.666045,360.770373 L660.219896,355.044053 L645.36612,341.520189 L618.611061,352.363647 L618.611061,365.065113 Z M806.900932,468.382555 L806.900932,493.024008 L807.08356,492.902172 L813.627744,498.262983 L813.627744,509.746083 L820.171928,504.019762 L820.171928,494.211915 L813.292926,489.612584 L813.292926,468.382555 L806.900932,468.382555 Z M850.457803,354.130278 L842.087335,340.880547 L821.480765,340.880547 L806.900932,375.329847 L827.050931,396.40758 L855.784465,396.40758 L879.678346,376.517754 L858.097758,368.872507 L847.292244,356.780224 L850.457803,354.130278 Z M791.255767,421.445003 L803.430993,421.445003 L806.900932,415.383632 L815.910599,415.383632 L817.219436,405.728081 L814.571324,394.336358 L797.130313,396.77309 L791.255767,421.445003 Z M667.220651,316.604603 L667.220651,332.656576 L645.36612,341.520189 L660.250334,355.044053 L664.146406,353.612472 L665.637872,346.363194 L713.273444,346.363194 L724.018081,324.310769 L719.78719,295.283197 L698.602296,295.283197 L667.220651,316.604603 Z M565.344447,303.689923 L583.881229,303.689923 L589.451395,295.283197 L589.451395,278.012859 L604.487799,278.012859 L604.487799,267.537956 L587.929491,267.537956 L565.587951,296.653859 L565.344447,303.689923 Z M563.974734,341.977077 L578.9807,346.363194 L563.822544,346.363194 L563.548601,353.582013 L593.682286,353.582013 L587.47292,339.509885 L564.644371,323.092403 L563.974734,341.977077 Z M578.9807,346.363194 L563.974734,341.977077 L563.822544,346.363194 L578.9807,346.363194 Z M723.987643,324.310769 L713.273444,346.363194 L722.130921,365.18695 L714.947537,365.18695 L718.539229,375.817194 L754.090889,359.003742 L754.090889,340.697792 L762.004786,332.900249 L762.796176,315.112105 L731.931978,295.283197 L719.78719,295.283197 L723.987643,324.310769 Z M724.078957,252.183498 L717.595649,244.318945 L703.685453,240.977576 L690.749275,254.900455 L699.150181,295.289289 L731.931978,295.289289 L762.796176,315.118197 L765.809544,246.767861 L747.851086,244.331129 L740.424198,255.451765 L724.078957,252.183498 Z M601.870125,267.528819 L604.487799,267.528819 L604.487799,265.302255 L641.74399,244.952496 L641.74399,230.350378 L614.288856,233.213539 L587.929491,267.541002 L601.870125,267.528819 Z M641.74399,230.368654 L641.74399,244.970771 L604.487799,265.32053 L604.487799,270.315831 L667.220651,316.613741 L698.602296,295.292335 L699.150181,295.292335 L683.839835,221.672566 L665.8205,221.151715 L641.74399,230.368654 Z M683.839835,221.660383 L690.749275,254.921776 L703.685453,240.998898 L698.602296,239.780532 L699.241496,222.114224 L683.839835,221.660383 Z M767.118381,513.824563 L785.168153,539.166577 L799.169663,539.166577 L806.900932,521.073841 L806.900932,509.743037 L794.543078,501.640902 L777.04119,513.824563 L767.118381,513.824563 Z M775.397535,582.845 L782.580918,582.845 L786.842247,578.397964 L786.842247,572.702103 L780.967701,572.702103 L775.397535,576.296283 L775.397535,582.845 Z M799.169663,557.35069 L793.690812,557.35069 L793.690812,562.37645 L799.169663,565.666039 L799.169663,557.35069 Z M813.901687,261.714167 L813.993001,261.45831 L808.544588,252.573375 L765.809544,246.761769 L763.526689,298.603245 L810.370871,298.603245 L819.806672,293.211975 L800.387186,259.828745 L811.010071,268.494374 L813.901687,261.714167 Z M819.806672,293.239388 L810.370871,298.630658 L763.496251,298.630658 L762.004786,332.897204 L754.090889,340.694746 L754.090889,359.000696 L782.124347,391.287397 L797.130313,396.770044 L823.794058,393.023568 L806.900932,375.326801 L821.480765,340.877501 L832.438469,314.987223 L819.806672,293.239388 Z M786.842247,440.082957 L797.130313,396.770044 L782.124347,391.287397 L739.784998,392.475304 L736.345497,419.401194 L722.130921,443.007036 L708.61642,449.190244 L711.660226,453.241311 L727.670648,453.119474 L730.288322,462.165842 L740.363322,461.830792 L742.402672,454.642432 L752.50811,454.642432 L752.50811,470.968537 L790.281748,489.609538 L793.690812,482.756229 L783.889755,478.826998 L786.842247,465.577267 L803.15705,463.110076 L786.842247,440.082957 Z M715.251918,388.881124 L724.413775,401.795804 L738.597914,401.795804 L739.784998,392.475304 L782.124347,391.287397 L754.090889,359.000696 L718.539229,375.814148 L715.251918,388.881124 Z M664.146406,353.609427 L650.87541,358.482891 L655.228053,384.647302 L657.906603,383.885823 L664.146406,353.609427 Z M650.87541,358.482891 L644.666045,360.767327 L648.866498,386.474851 L655.228053,384.647302 L650.87541,358.482891 Z M570.427604,361.346051 L577.824054,353.578967 L563.579039,353.578967 L563.548601,353.914018 L570.427604,361.346051 Z M155.556776,55.8407623 L144.446882,51.2597059 L86.2797395,51.5886648 L62.7511151,61.0736445 L62.7511151,71.5394089 L36.2821737,71.213496 L31.2598929,78.2282386 L53.5983889,77.424117 L24.840505,88.2188402 L10.9455282,107.057825 L22.8802936,106.859841 L0,121.903616 L8.3643803,122.558488 L52.1647561,101.630005 L102.722382,99.8633738 L118.08143,115.236108 L123.882925,108.98589 L118.814987,103.749962 L113.098719,103.749962 L107.516378,97.3474479 L155.578082,55.8316245 L155.556776,55.8407623 Z M117.539632,153.18821 L109.531377,146.645584 L106.097964,149.590984 L111.680305,156.895089 L117.539632,156.895089 L117.539632,153.18821 Z M424.355329,163.315878 L418.35903,153.757796 L412.941055,152.463282 L412.941055,145.606927 L395.500043,163.315878 L424.355329,163.315878 Z M415.22391,52.6882401 L380.098382,38.3328421 L374.863035,38.2780156 L362.657371,48.3112601 L366.736072,38.2170973 L360.831087,38.1714086 L346.616511,53.2943772 L381.163715,51.4150476 L402.257294,70.3027674 L388.073155,70.0590942 L380.92021,75.9224808 L364.818474,75.9224808 L364.818474,80.5279045 L381.163715,80.5279045 L395.013034,91.9896832 L398.787354,90.3387972 L395.500043,83.05906 L405.027158,87.5974736 L408.13184,86.2481331 L408.13184,72.0206635 L419.089544,75.9224808 L425.390223,71.716072 L421.82897,65.0607474 L415.497852,62.7519437 L415.22391,52.6882401 Z M296.941588,181.012645 L307.077464,181.012645 L314.108657,176.194007 L336.815454,176.194007 L346.616511,167.689812 L355.44355,167.689812 L352.247553,177.753516 L367.923156,175.048743 L357.63509,179.952667 L358.609108,184.20781 L386.551252,174.384734 L372.914999,173.735954 L366.553443,168.000496 L372.854123,158.223108 L369.779878,155.286846 L350.025574,164.257066 L350.025574,159.106423 L368.927613,150.029596 L399.213487,148.722899 L421.98116,136.59711 L422.102912,131.062683 L405.514167,128.187339 L403.505255,101.048235 L381.802914,109.595073 L381.955104,96.8265964 L371.48441,87.9142487 L357.269834,87.9142487 L318.826557,143.898169 L309.512509,143.928628 L309.695138,125.516071 L276.578523,107.529942 L309.695138,83.0011876 L328.475424,79.5714872 L324.548914,73.7598811 L353.465075,70.5708079 L365.244607,58.3079536 L354.195589,57.0834957 L339.006994,67.1380616 L340.711526,58.5546727 L333.619457,57.8175612 L331.945363,47.4462202 L319.648385,52.9105919 L322.844382,59.5354574 L306.407827,67.3817348 L277.735169,61.987419 L262.577013,69.0996309 L225.777392,54.3848149 L155.435024,55.8559919 L107.373319,97.3718152 L112.95566,103.774329 L118.671928,103.774329 L123.739866,109.010257 L117.938371,115.260475 L112.054693,142.20464 L122.595395,151.77186 L122.595395,156.922502 L240.755964,156.922502 L254.635722,163.261052 L278.133908,158.268797 L281.0864,168.694964 L285.834738,172.203858 L293.809512,171.640364 L296.941588,181.012645 Z M339.341813,75.9285726 L330.332146,83.2600904 L348.138414,85.1455119 L350.025574,80.5339963 L339.341813,75.9285726 Z M304.581543,57.2784342 L307.899292,61.5640368 L316.300198,57.2784342 L313.804277,53.3004691 L304.581543,57.2784342 Z M310.943098,42.8834393 L316.300198,48.3173519 L327.805786,44.473407 L330.819155,36.4260992 L310.943098,42.8834393 Z M332.888943,39.6486774 L334.34997,44.7993199 L350.025574,40.6294621 L346.860015,36.4260992 L332.888943,39.6486774 Z M372.854123,28.9788367 L364.270589,25.4212078 L355.930559,32.5334196 L389.747249,35.1985954 L398.574288,28.9788367 L372.854123,28.9788367 Z M455.189089,9.96928026 L472.843167,0 L402.744303,5.20242306 L402.744303,8.98849558 L426.39468,8.49810324 L423.07693,12.9146802 L398.574288,13.4020266 L401.770285,19.0461074 L391.208276,17.3282112 L395.378291,22.722527 L377.237204,22.722527 L379.946192,25.4212078 L399.791811,25.4212078 L402.987807,28.1198886 L431.903969,14.6295304 L455.189089,9.96928026 Z M369.414622,14.0629902 L382.472552,16.5332274 L389.960316,11.735911 L384.54234,7.68788982 L369.414622,14.0629902 Z M231.499748,48.3295356 L262.181318,37.8850925 L255.119687,34.6107338 L226.112211,42.0031698 L231.499748,48.3295356 Z M266.138266,39.7918354 L249.607353,45.4176407 L259.350578,49.5235343 L244.152852,53.3979383 L263.033584,60.7568693 L276.030638,55.1127886 L290.488719,58.5485809 L301.32467,56.0600682 L290.732223,51.1652825 L298.889625,40.6264162 L290.732223,40.6264162 L285.831695,46.9680115 L283.85322,40.6264162 L275.20881,43.9830146 L266.138266,39.7918354 Z M242.192641,298.176817 L257.250351,298.176817 L269.395139,306.278951 L264.768554,311.426548 L285.831695,311.426548 L260.659415,293.272893 L247.339717,293.272893 L242.192641,298.176817 Z M263.277088,320.747048 L266.442647,323.457913 L275.513191,323.457913 L275.513191,320.259702 L272.347632,317.061491 L263.277088,317.061491 L263.277088,320.747048 Z M319.130938,318.249398 L317.274216,321.325772 L322.357373,321.325772 L324.214095,318.249398 L319.130938,318.249398 Z M207.149296,331.407751 L198.571849,331.407751 L194.499236,338.657029 L206.644024,344.779319 L214.871433,329.915253 L213.276479,321.995873 L205.925686,321.995873 L207.149296,331.407751 Z M216.709892,343.439116 L215.233646,348.647631 L217.44345,349.652783 L237.73042,332.656576 L213.282566,332.900249 L209.249523,340.119068 L216.709892,343.439116 Z M215.233646,348.647631 L216.709892,343.439116 L209.249523,340.119068 L206.644024,344.779319 L215.233646,348.647631 Z M222.837075,314.868432 L213.276479,321.995873 L214.871433,329.915253 L222.837075,314.868432 Z M225.162543,360.069813 L238.387882,361.470934 L237.73042,332.656576 L217.44345,349.652783 L225.162543,360.069813 Z M246.469189,440.299217 L257.289921,445.477273 L276.587654,421.780053 L256.924664,410.540626 L247.595397,422.297859 L246.469189,440.299217 Z M286.221302,356.414714 L280.985955,356.384255 L270.058689,371.156944 L264.488523,371.522453 L266.071303,376.883264 L263.149248,381.025709 L265.401665,388.51866 L263.271001,402.49941 L256.909445,410.540626 L301.836029,436.217691 L301.836029,407.403334 L312.276286,406.702773 L312.276286,383.827951 L295.139655,382.06132 L287.682329,373.80689 L286.221302,356.414714 Z M357.568127,706.085773 L364.264501,712.238521 L384.901509,713 L362.620845,701.364604 L357.568127,706.085773 Z M389.28459,557.597409 L380.274923,563.080057 L368.160573,563.080057 L368.160573,552.297517 L343.414426,535.544984 L342.014275,538.103553 L321.377267,538.103553 L315.837539,589.579518 L327.495318,640.598597 L338.026889,659.361434 L338.513898,673.433562 L354.159063,697.404914 L359.850981,697.983638 L356.898489,636.669367 L390.07598,622.292647 L375.039576,601.336751 L375.039576,578.279173 L389.680285,563.232352 L389.28459,557.597409 Z M392.937158,607.915928 L400.120542,595.458135 L375.039576,578.279173 L375.039576,601.336751 L392.937158,607.915928 Z M323.081799,364.577767 L311.971905,356.658388 L286.221302,356.414714 L287.682329,373.80689 L295.139655,382.06132 L312.276286,383.827951 L312.276286,406.702773 L315.015712,406.520018 L318.485651,414.287102 L329.625983,410.692922 L328.712841,398.631098 L343.627493,393.148451 L348.041012,371.339699 L343.018731,366.527153 L323.081799,364.577767 Z M225.132105,360.069813 L233.937837,371.979341 L237.115571,373.106329 L241.577792,367.319091 L238.451802,365.582919 L238.357444,361.470934 L225.132105,360.069813 Z M363.564425,386.142846 L348.010574,371.339699 L343.597055,393.148451 L350.080363,390.772637 L349.197659,409.383179 L364.081873,407.707925 L358.998716,394.671409 L363.564425,386.142846 Z M325.090711,475.966884 L309.902117,480.261624 L309.902117,515.015516 L321.346829,538.103553 L341.983837,538.103553 L350.019486,523.361323 L365.573338,523.269946 L365.208081,511.63455 L338.726964,489.978093 L325.090711,475.966884 Z M377.444183,406.245886 L387.427869,405.118897 L390.380361,396.742631 L386.45385,388.122691 L378.113821,387.422131 L377.444183,406.245886 Z M365.573338,523.269946 L350.019486,523.361323 L343.383988,535.544984 L368.130135,552.297517 L368.130135,563.080057 L380.244485,563.080057 L389.254152,557.597409 L388.645391,549.068847 L365.999471,536.976564 L365.573338,523.269946 Z M364.081873,407.707925 L377.444183,406.245886 L378.113821,387.422131 L363.564425,386.142846 L358.998716,394.671409 L364.081873,407.707925 Z M426.632096,426.379385 L415.309136,421.475462 L403.986176,428.115557 L407.669182,418.185873 L400.15098,414.926744 L389.467219,423.150715 L397.228925,411.698074 L390.380361,396.742631 L387.427869,405.118897 L349.197659,409.383179 L350.080363,390.772637 L343.597055,393.148451 L328.682403,398.631098 L329.595545,410.692922 L318.455213,414.287102 L314.985273,406.520018 L301.805591,407.403334 L301.805591,441.426206 L288.412843,443.071 L282.507858,462.351643 L304.910274,481.662745 L325.090711,475.966884 L338.726964,489.978093 L365.208081,511.63455 L365.999471,536.976564 L388.645391,549.068847 L389.649847,563.232352 L375.009138,578.279173 L400.090104,595.458135 L414.700375,569.963825 L418.139876,547.88094 L453.63066,532.164018 L460.23572,483.063866 L475.546067,463.021744 L475.546067,450.899002 L450.49554,434.572897 L425.992897,433.080398 L426.632096,426.379385 Z M251.247965,366.892662 L247.090125,370.365006 L241.574748,367.319091 L237.112528,373.106329 L250.240465,377.797039 L253.421243,373.045411 L260.939445,373.776431 L263.130986,381.025709 L266.05304,376.883264 L264.683327,371.857504 L263.039671,365.857051 L251.247965,366.892662 Z M288.412843,443.071 L301.805591,441.426206 L301.805591,436.217691 L276.541997,421.780053 L257.244264,445.477273 L246.423532,440.299217 L246.076538,445.842783 L278.949648,501.857162 L307.348363,520.894132 L309.90516,515.015516 L309.90516,480.261624 L304.913318,481.662745 L282.510902,462.351643 L288.412843,443.071 Z M327.46488,640.598597 L315.807101,589.579518 L321.346829,538.103553 L309.902117,515.015516 L307.345319,520.894132 L312.124095,637.400386 L324.695016,647.573743 L325.273339,668.468721 L347.066994,696.673895 L354.128625,697.404914 L338.48346,673.433562 L337.996451,659.361434 L327.46488,640.598597 Z M312.245848,314.076494 L297.42251,312.4317 L297.42251,320.625211 L302.383914,316.939654 L310.297811,316.939654 L312.245848,314.076494 Z M297.42251,318.614907 L297.42251,312.4317 L288.169338,312.4317 L291.182706,316.695981 L285.795169,316.695981 L285.795169,318.614907 L297.42251,318.614907 Z" id="Shape"></path>
                            <path d="M1412.84744,633.895161 L1409.80735,643.65 L1432,627.798387 L1425.61581,619.262903 L1425.61581,609.508065 L1421.96771,611.032258 L1421.96771,624.75 L1412.84744,633.895161 Z M1354.47773,665.903226 L1400.68708,642.430645 L1400.68708,648.527419 L1365.11804,672 L1354.47773,665.903226 Z M1165.08018,545.491935 L1203.99332,527.201613 L1232.87416,495.193548 L1248.68263,502.204839 L1255.67483,487.572581 L1282.12361,486.962903 L1275.43541,499.156452 L1297.32405,518.056452 L1311.91648,503.424194 L1311.91648,483 L1318.60468,485.133871 L1326.2049,521.714516 L1349.91759,555.246774 L1347.48552,580.548387 L1304.31626,625.359677 L1266.92316,623.225806 L1262.36303,597.924194 L1249.59465,603.41129 L1237.4343,592.741935 L1163.56013,608.898387 L1159,603.41129 L1165.08018,588.779032 L1165.08018,545.491935 Z" id="Shape"></path>
                        </g>
                        <g id="Markers" transform="translate(168.000000, 139.000000)">
                            <text id="Hong-Kong" font-family="Lora-Regular, Lora" font-size="12" font-weight="normal" fill="#D4D4D4">
                                <tspan x="1028.926" y="170">Hong Kong</tspan>
                            </text>
                            <text id="Tokyo" font-family="Lora-Regular, Lora" font-size="12" font-weight="normal" fill="#D4D4D4">
                                <tspan x="1086.104" y="86">Tokyo</tspan>
                            </text>
                            <text id="Singapore" font-family="Lora-Regular, Lora" font-size="12" font-weight="normal" fill="#D4D4D4">
                                <tspan x="926.492" y="265">Singapore</tspan>
                            </text>
                            <text id="Geneva" font-family="Lora-Regular, Lora" font-size="12" font-weight="normal" fill="#D4D4D4">
                                <tspan x="464.752" y="44">Geneva</tspan>
                            </text>
                            <text id="Zurich" font-family="Lora-Regular, Lora" font-size="12" font-weight="normal" fill="#D4D4D4">
                                <tspan x="525.188" y="23">Zurich</tspan>
                            </text>
                            <text id="London" font-family="Lora-Regular, Lora" font-size="12" font-weight="normal" fill="#D4D4D4">
                                <tspan x="430.14" y="11">London</tspan>
                            </text>
                            <text id="New-York" font-family="Lora-Regular, Lora" font-size="12" font-weight="normal" fill="#D4D4D4">
                                <tspan x="152.186" y="72">Antwerp</tspan>
                            </text>
                            <text id="Toronto" font-family="Lora-Regular, Lora" font-size="12" font-weight="normal" fill="#D4D4D4">
                                <tspan x="133.458" y="37">Toronto</tspan>
                            </text>
                            <text id="Chigago" font-family="Lora-Regular, Lora" font-size="12" font-weight="normal" fill="#D4D4D4">
                                <tspan x="48.314" y="40">Chigago</tspan>
                            </text>
                            <text id="Miami" font-family="Lora-Regular, Lora" font-size="12" font-weight="normal" fill="#D4D4D4">
                                <tspan x="95.66" y="125">Miami</tspan>
                            </text>
                            <text id="Houston" font-family="Lora-Regular, Lora" font-size="12" font-weight="normal" fill="#D4D4D4">
                                <tspan x="0.108" y="113">Houston</tspan>
                            </text>
                            <circle id="Oval-2" fill="#DFD7CD" cx="146.5" cy="62.5" r="2.5"></circle>
                            <circle id="Oval-2-Copy-7" fill="#DFD7CD" cx="133.5" cy="43.5" r="2.5"></circle>
                            <circle id="Oval-2-Copy-8" fill="#DFD7CD" cx="85.5" cy="51.5" r="2.5"></circle>
                            <circle id="Oval-2-Copy-9" fill="#DFD7CD" cx="95.5" cy="134.5" r="2.5"></circle>
                            <circle id="Oval-2-Copy-10" fill="#DFD7CD" cx="16.5" cy="126.5" r="2.5"></circle>
                            <circle id="Oval-2-Copy" fill="#DFD7CD" cx="479.5" cy="2.5" r="2.5"></circle>
                            <circle id="Oval-2-Copy-2" fill="#DFD7CD" cx="519.5" cy="26.5" r="2.5"></circle>
                            <circle id="Oval-2-Copy-3" fill="#DFD7CD" cx="510.5" cy="33.5" r="2.5"></circle>
                            <circle id="Oval-2-Copy-4" fill="#DFD7CD" cx="990.5" cy="270.5" r="2.5"></circle>
                            <circle id="Oval-2-Copy-5" fill="#DFD7CD" cx="1126.5" cy="87.5" r="2.5"></circle>
                            <circle id="Oval-2-Copy-6" fill="#DFD7CD" cx="1026.5" cy="156.5" r="2.5"></circle>
                        </g>
                    </g>
                </g>
            </g>
        </g>
    </g>
</svg>